<?xml version="1.0" encoding="UTF-8"?>
<svg version="1.1" xmlns="http://www.w3.org/2000/svg" width="502" height="497">
<path d="M0 0 C1.19496094 -0.00386719 1.19496094 -0.00386719 2.4140625 -0.0078125 C4.375 0.125 4.375 0.125 5.375 1.125 C5.44758946 3.31139453 5.45873783 5.50000389 5.4375 7.6875 C5.42847656 8.88503906 5.41945312 10.08257812 5.41015625 11.31640625 C5.39855469 12.24324219 5.38695312 13.17007813 5.375 14.125 C9.83424011 13.31742459 14.29222328 12.50311136 18.75 11.6875 C20.65652344 11.34235352 20.65652344 11.34235352 22.6015625 10.99023438 C23.81328125 10.76787109 25.025 10.54550781 26.2734375 10.31640625 C27.39411621 10.11217041 28.51479492 9.90793457 29.66943359 9.69750977 C32.32735173 9.25397448 32.32735173 9.25397448 34.375 8.125 C44.54928191 6.76562625 50.1948868 8.32376605 58.2421875 14.375 C59.29792969 15.24125 59.29792969 15.24125 60.375 16.125 C59.88 18.6 59.88 18.6 59.375 21.125 C57.89 21.62 57.89 21.62 56.375 22.125 C56.375 22.785 56.375 23.445 56.375 24.125 C53.53660391 25.69496271 51.16465746 26.46332893 47.953125 26.87109375 C47.10016846 26.98477295 46.24721191 27.09845215 45.3684082 27.21557617 C44.4630835 27.33006104 43.55775879 27.4445459 42.625 27.5625 C35.92864963 28.45230563 29.30698611 29.46534251 22.6875 30.8125 C16.76903935 31.97321955 11.39391601 32.40713669 5.375 32.125 C5.87 36.085 5.87 36.085 6.375 40.125 C7.00148437 40.02960938 7.62796875 39.93421875 8.2734375 39.8359375 C9.09070313 39.72507813 9.90796875 39.61421875 10.75 39.5 C11.56210937 39.38398438 12.37421875 39.26796875 13.2109375 39.1484375 C13.92507813 39.14070313 14.63921875 39.13296875 15.375 39.125 C18.45160604 42.20160604 18.35753612 44.46835819 18.47265625 48.796875 C18.46605717 50.15628449 18.45420246 51.5156771 18.4375 52.875 C18.43298828 53.57238281 18.42847656 54.26976562 18.42382812 54.98828125 C18.4121002 56.70055803 18.39416653 58.41279033 18.375 60.125 C22.91432975 60.26267939 22.91432975 60.26267939 27.375 59.625 C34.29374986 57.89531254 39.30740434 60.04304665 45.375 63.125 C45.7158943 66.70439012 45.49218165 68.86746519 43.9921875 72.1640625 C40.27740985 76.36675125 36.61855899 76.83277975 31.25 77.875 C30.35023438 78.06964844 29.45046875 78.26429688 28.5234375 78.46484375 C25.81204185 79.04530058 23.09562897 79.58963473 20.375 80.125 C18.48173911 80.50505036 16.58850835 80.88525079 14.6953125 81.265625 C13.25528267 81.5524568 11.81520759 81.83906211 10.375 82.125 C10.34787675 85.00006421 10.32810149 87.87486908 10.3125 90.75 C10.29993164 91.96236328 10.29993164 91.96236328 10.28710938 93.19921875 C10.2691045 97.62841918 10.47877338 101.76383424 11.375 106.125 C12.426875 106.021875 13.47875 105.91875 14.5625 105.8125 C18.375 106.125 18.375 106.125 21.1875 108.1875 C24.52016791 112.66279691 25.34525568 116.34034093 25.4375 121.875 C24.375 125.125 24.375 125.125 21.75 127.0625 C15.28607538 129.26672534 5.77515891 129.2583863 -0.625 127.125 C-1.615 127.455 -2.605 127.785 -3.625 128.125 C-10.83117964 128.83514048 -16.62074459 128.37191237 -22.625 124.125 C-24.75 122.25 -24.75 122.25 -25.625 120.125 C-24.78891654 115.66588821 -23.35079965 112.73305976 -19.625 110.125 C-13.69654549 108.17894217 -10.56535 107.74886 -4.625 110.125 C-4.625 101.875 -4.625 93.625 -4.625 85.125 C-7.595 84.63 -7.595 84.63 -10.625 84.125 C-11.43852826 79.65059456 -11.68106391 75.41272742 -11.65625 70.859375 C-11.65173828 69.78397461 -11.64722656 68.70857422 -11.64257812 67.60058594 C-11.63677734 66.78364258 -11.63097656 65.96669922 -11.625 65.125 C-12.55248047 65.16165771 -13.47996094 65.19831543 -14.43554688 65.23608398 C-17.90982004 65.35610354 -21.38186178 65.44346773 -24.85742188 65.50952148 C-26.35517338 65.54451417 -27.8526894 65.59212827 -29.34960938 65.65307617 C-43.37941821 66.20959192 -43.37941821 66.20959192 -48.65625 61.72265625 C-51.625 58.60925624 -51.625 58.60925624 -51.625 56.125 C-52.285 56.125 -52.945 56.125 -53.625 56.125 C-53.298444 53.15334041 -52.78610849 52.25925708 -50.4453125 50.30859375 C-49.55585938 49.73238281 -48.66640625 49.15617187 -47.75 48.5625 C-44.22618854 46.35315433 -44.22618854 46.35315433 -41.28515625 43.484375 C-38.56808744 41.25957513 -35.3198602 41.26566476 -31.9375 40.9375 C-30.82193726 40.81689209 -30.82193726 40.81689209 -29.68383789 40.69384766 C-21.99696389 39.93399016 -14.33931104 39.93811225 -6.625 40.125 C-6.625 38.145 -6.625 36.165 -6.625 34.125 C-7.60082031 34.23199219 -8.57664063 34.33898437 -9.58203125 34.44921875 C-10.85433594 34.56910156 -12.12664062 34.68898437 -13.4375 34.8125 C-14.70207031 34.94011719 -15.96664062 35.06773437 -17.26953125 35.19921875 C-20.625 35.125 -20.625 35.125 -22.55859375 34.12109375 C-24.21429531 31.02196007 -23.97781683 27.91865951 -23.875 24.5 C-23.86984375 23.80648437 -23.8646875 23.11296875 -23.859375 22.3984375 C-23.77938988 17.27938988 -23.77938988 17.27938988 -22.625 16.125 C-20.27512738 15.88972227 -17.91943961 15.71113583 -15.5625 15.5625 C-12.1284375 15.3459375 -12.1284375 15.3459375 -8.625 15.125 C-8.295 10.505 -7.965 5.885 -7.625 1.125 C-4.78285932 0.17761977 -2.94891609 -0.00960559 0 0 Z M7.375 62.125 C7.375 62.455 7.375 62.785 7.375 63.125 C9.025 63.125 10.675 63.125 12.375 63.125 C12.375 62.795 12.375 62.465 12.375 62.125 C10.725 62.125 9.075 62.125 7.375 62.125 Z " fill="#362E26" transform="translate(245.625,139.875)"/>
<path d="M0 0 C8.50697255 0.05272917 13.15308129 3.31470773 19.625 8.625 C19.295 10.275 18.965 11.925 18.625 13.625 C17.635 13.955 16.645 14.285 15.625 14.625 C15.625 15.285 15.625 15.945 15.625 16.625 C12.41568405 18.46935792 9.64719989 19.04793406 5.984375 19.4765625 C4.91445313 19.60546875 3.84453125 19.734375 2.7421875 19.8671875 C1.63101563 19.99351562 0.51984375 20.11984375 -0.625 20.25 C-1.75164062 20.3840625 -2.87828125 20.518125 -4.0390625 20.65625 C-6.81699438 20.98583514 -9.59555304 21.30849064 -12.375 21.625 C-12.375 21.295 -12.375 20.965 -12.375 20.625 C-19.29549916 21.07530645 -26.13285123 21.70945154 -33 22.6875 C-42.11398091 23.94631221 -51.19388294 23.80463055 -60.375 23.625 C-61.67992469 19.46555256 -62.49519705 15.97463091 -62.375 11.625 C-58.93807456 11.16229238 -55.50045634 10.70498383 -52.0625 10.25 C-51.01594238 10.11134521 -49.96938477 9.97269043 -48.89111328 9.82983398 C-42.51792679 8.99798071 -36.14836034 8.28927836 -29.75 7.6875 C-19.49637518 6.70212688 -9.45759264 4.69168068 0.625 2.625 C-2.345 2.625 -5.315 2.625 -8.375 2.625 C-5.62138352 -0.12861648 -3.85511688 0.16169364 0 0 Z " fill="#D4BE93" transform="translate(286.375,147.375)"/>
<path d="M0 0 C0.98654572 -0.00095673 1.97309143 -0.00191345 2.98953247 -0.00289917 C5.06203272 -0.00357665 7.13453514 -0.00175262 9.20703125 0.00244141 C12.39327681 0.0078302 15.5793836 0.00246427 18.765625 -0.00390625 C20.78125031 -0.00324606 22.79687554 -0.00196614 24.8125 0 C26.2482991 -0.00303635 26.2482991 -0.00303635 27.71310425 -0.00613403 C28.59136871 -0.00298187 29.46963318 0.00017029 30.37451172 0.00341797 C31.15059784 0.00421356 31.92668396 0.00500916 32.72628784 0.00582886 C34.5078125 0.1328125 34.5078125 0.1328125 35.5078125 1.1328125 C35.74309023 3.48268512 35.92167667 5.83837289 36.0703125 8.1953125 C36.15410156 9.48566406 36.23789062 10.77601563 36.32421875 12.10546875 C36.38480469 13.10449219 36.44539063 14.10351562 36.5078125 15.1328125 C34.1978125 15.7928125 31.8878125 16.4528125 29.5078125 17.1328125 C31.4259375 17.0709375 31.4259375 17.0709375 33.3828125 17.0078125 C35.5625 16.9375 35.5625 16.9375 37.5078125 17.1328125 C38.4978125 18.1228125 38.4978125 18.1228125 39.5078125 19.1328125 C35.5478125 19.6278125 35.5478125 19.6278125 31.5078125 20.1328125 C31.5078125 20.4628125 31.5078125 20.7928125 31.5078125 21.1328125 C29.8578125 21.1328125 28.2078125 21.1328125 26.5078125 21.1328125 C26.5078125 19.8128125 26.5078125 18.4928125 26.5078125 17.1328125 C25.37730469 17.28621094 24.24679688 17.43960938 23.08203125 17.59765625 C15.84917238 18.49759722 8.58027459 18.74908239 1.30126953 19.02001953 C-0.57856139 19.09592251 -2.45787795 19.18569752 -4.33642578 19.28857422 C-22.51042038 20.26412907 -22.51042038 20.26412907 -27.8046875 15.6328125 C-29.48046875 13.6640625 -29.48046875 13.6640625 -30.4921875 12.1328125 C-28.57797488 10.12771738 -26.90675167 8.74667397 -24.5546875 7.1953125 C-21.49624542 5.32142271 -21.49624542 5.32142271 -19.5546875 2.9453125 C-14.74769321 -1.27901581 -6.07419861 -0.01301045 0 0 Z " fill="#D7C093" transform="translate(225.4921875,182.8671875)"/>
<path d="M0 0 C0.3408943 3.57939012 0.11718165 5.74246519 -1.3828125 9.0390625 C-5.09759015 13.24175125 -8.75644101 13.70777975 -14.125 14.75 C-15.47464844 15.04197266 -15.47464844 15.04197266 -16.8515625 15.33984375 C-20.50428455 16.12182016 -24.16304414 16.84855907 -27.83886719 17.51367188 C-28.73508789 17.67931641 -29.63130859 17.84496094 -30.5546875 18.015625 C-31.36147949 18.15774414 -32.16827148 18.29986328 -32.99951172 18.44628906 C-35.20969836 18.88112684 -35.20969836 18.88112684 -37 21 C-37 20.01 -37 19.02 -37 18 C-45.415 18.495 -45.415 18.495 -54 19 C-54 14.05 -54 9.1 -54 4 C-52.329375 3.83564453 -52.329375 3.83564453 -50.625 3.66796875 C-40.29450172 2.60918945 -30.17336971 1.07902651 -20 -1 C-20 -1.66 -20 -2.32 -20 -3 C-12.42519857 -5.42393646 -6.77289034 -3.44019827 0 0 Z " fill="#D4BE94" transform="translate(291,203)"/>
<path d="M0 0 C4.78898158 2.12843626 6.90729784 4.8324842 9.16210938 9.52539062 C10.81578256 14.40931587 10.61385878 19.39433278 10.5625 24.5 C10.58634766 25.58925781 10.61019531 26.67851562 10.63476562 27.80078125 C10.62222494 34.71487992 9.74943494 39.76790236 5 45 C0.71926264 47.85382491 -2.98106053 47.47762138 -8 47 C-12.43493452 45.68594533 -13.65210545 44.54950804 -16.13671875 40.625 C-18.727484 35.20371974 -18.55079196 29.90580035 -18.4375 24 C-18.44458984 22.9584375 -18.45167969 21.916875 -18.45898438 20.84375 C-18.39894203 13.52782157 -17.75137228 7.3349967 -12.9375 1.5 C-8.59925419 -0.71527446 -4.77289785 -0.73547062 0 0 Z M-9 7 C-14.8005738 16.09774207 -13.08899111 28.03711934 -11 38 C-10.34 38 -9.68 38 -9 38 C-9 38.66 -9 39.32 -9 40 C-6.18401813 42.30260759 -6.18401813 42.30260759 -3 41.875 C0.54056654 40.84233476 1.10278283 40.06637061 3 37 C5.88963198 28.5566363 5.48047868 19.15022795 2.14453125 10.87890625 C0.60219436 8.25378591 -0.70482162 7.10799209 -3.5625 6.0625 C-6.14134384 5.85798068 -6.14134384 5.85798068 -9 7 Z " fill="#303030" transform="translate(164,276)"/>
<path d="M0 0 C1.03125 0.14824219 2.0625 0.29648437 3.125 0.44921875 C6.41090123 1.43588203 7.80759675 2.72483174 10 5.3125 C9.01 6.7975 9.01 6.7975 8 8.3125 C6.68 7.9825 5.36 7.6525 4 7.3125 C4 6.6525 4 5.9925 4 5.3125 C2.22825181 5.39973378 0.45752623 5.50791655 -1.3125 5.625 C-2.79169922 5.71201172 -2.79169922 5.71201172 -4.30078125 5.80078125 C-7.29599655 6.36861512 -8.20644007 6.90384099 -10 9.3125 C-13.45115678 17.66793221 -12.62678033 27.56855574 -11 36.3125 C-10.34 36.3125 -9.68 36.3125 -9 36.3125 C-9 36.9725 -9 37.6325 -9 38.3125 C-8.34 38.3125 -7.68 38.3125 -7 38.3125 C-7 38.9725 -7 39.6325 -7 40.3125 C-3.37 39.6525 0.26 38.9925 4 38.3125 C4 37.6525 4 36.9925 4 36.3125 C4.66 36.3125 5.32 36.3125 6 36.3125 C5.67 34.9925 5.34 33.6725 5 32.3125 C3.68 31.9825 2.36 31.6525 1 31.3125 C0.67 29.9925 0.34 28.6725 0 27.3125 C1.60203467 26.94881108 3.20674203 26.59688048 4.8125 26.25 C6.15248047 25.95416016 6.15248047 25.95416016 7.51953125 25.65234375 C10 25.3125 10 25.3125 13 26.3125 C13 32.9125 13 39.5125 13 46.3125 C10.03 46.8075 10.03 46.8075 7 47.3125 C6.67 46.6525 6.34 45.9925 6 45.3125 C5.05640625 45.56386719 5.05640625 45.56386719 4.09375 45.8203125 C-2.01774836 47.27455458 -6.12110718 47.70391403 -12 45.3125 C-17.75262938 40.18515642 -18.62556811 34.75383827 -19.25390625 27.30078125 C-19.55337586 19.29238438 -18.56481158 11.57490985 -15 4.3125 C-10.0068247 -0.50147488 -6.6977267 -1.0465198 0 0 Z " fill="#2E2E2E" transform="translate(264,277.6875)"/>
<path d="M0 0 C1.98 0 3.96 0 6 0 C6.30292969 1.08796875 6.60585938 2.1759375 6.91796875 3.296875 C9.13766564 11.13157297 11.54272508 18.66381168 14.79296875 26.14453125 C16.09775797 29.23126561 17.26506073 32.33800805 18.375 35.5 C18.71273437 36.4590625 19.05046875 37.418125 19.3984375 38.40625 C20.01889485 41.08146869 19.92568223 42.45136841 19 45 C17.125 45.625 17.125 45.625 15 46 C11.71822987 42.71822987 11.24594089 38.41742679 10 34 C5.38 33.34 0.76 32.68 -4 32 C-4.45375 33.93875 -4.9075 35.8775 -5.375 37.875 C-6.75 43.75 -6.75 43.75 -9 46 C-12.53571429 45.46428571 -12.53571429 45.46428571 -14 44 C-13.6072415 36.46451708 -11.11001095 29.65948808 -8.6875 22.5625 C-8.29626953 21.38623047 -7.90503906 20.20996094 -7.50195312 18.99804688 C-5.3129339 12.50359348 -2.94668086 6.190157 0 0 Z M2 12 C1.72285156 12.83144531 1.44570313 13.66289062 1.16015625 14.51953125 C-0.2265625 18.6796875 -1.61328125 22.83984375 -3 27 C0.96 27 4.92 27 9 27 C8.360625 25.453125 7.72125 23.90625 7.0625 22.3125 C5.64451846 18.8818995 4.62678171 15.66172475 4 12 C3.34 12 2.68 12 2 12 Z " fill="#2E2E2E" transform="translate(343,278)"/>
<path d="M0 0 C1.4540625 0.0309375 1.4540625 0.0309375 2.9375 0.0625 C3.19402344 0.90425781 3.45054687 1.74601562 3.71484375 2.61328125 C4.09769531 3.85464844 4.48054688 5.09601563 4.875 6.375 C5.08519775 7.05908936 5.29539551 7.74317871 5.51196289 8.44799805 C7.03500017 13.34118277 8.66196983 18.19023792 10.34375 23.03125 C10.76019775 24.24127686 11.17664551 25.45130371 11.60571289 26.69799805 C12.44805679 29.13818681 13.30132648 31.57463289 14.16577148 34.00708008 C14.55321533 35.13525146 14.94065918 36.26342285 15.33984375 37.42578125 C15.69554443 38.43938721 16.05124512 39.45299316 16.41772461 40.49731445 C16.58925049 41.34382568 16.76077637 42.19033691 16.9375 43.0625 C16.2775 44.0525 15.6175 45.0425 14.9375 46.0625 C13.078125 45.8359375 13.078125 45.8359375 10.9375 45.0625 C9.671875 43.1015625 9.671875 43.1015625 8.6875 40.6875 C8.18476563 39.50027344 8.18476563 39.50027344 7.671875 38.2890625 C6.9375 36.0625 6.9375 36.0625 6.9375 33.0625 C2.3175 33.0625 -2.3025 33.0625 -7.0625 33.0625 C-7.51625 34.83625 -7.97 36.61 -8.4375 38.4375 C-9.8125 43.8125 -9.8125 43.8125 -12.0625 46.0625 C-13.3825 46.0625 -14.7025 46.0625 -16.0625 46.0625 C-17.68521818 42.97761526 -18.13524879 41.4534629 -17.48828125 37.9765625 C-17.12089844 36.89117187 -16.75351563 35.80578125 -16.375 34.6875 C-16.02050781 33.60726562 -15.66601562 32.52703125 -15.30078125 31.4140625 C-14.25073827 28.57199034 -13.08916874 25.81452226 -11.87670898 23.03955078 C-9.83977925 18.0935067 -8.21941117 12.97830586 -6.4921875 7.91796875 C-6.193125 7.05042969 -5.8940625 6.18289063 -5.5859375 5.2890625 C-5.31700684 4.50096191 -5.04807617 3.71286133 -4.77099609 2.90087891 C-3.60094515 -0.13512508 -3.47633329 0.07094558 0 0 Z M-2.0625 12.0625 C-2.26746094 12.89394531 -2.47242188 13.72539062 -2.68359375 14.58203125 C-2.95300781 15.66871094 -3.22242188 16.75539063 -3.5 17.875 C-3.76683594 18.95394531 -4.03367188 20.03289062 -4.30859375 21.14453125 C-4.82327412 23.1365843 -5.41187175 25.11061524 -6.0625 27.0625 C-2.4325 27.0625 1.1975 27.0625 4.9375 27.0625 C4.09272369 23.68339476 3.07807406 20.57244262 1.875 17.3125 C1.51277344 16.32765625 1.15054688 15.3428125 0.77734375 14.328125 C0.50019531 13.58046875 0.22304687 12.8328125 -0.0625 12.0625 C-0.7225 12.0625 -1.3825 12.0625 -2.0625 12.0625 Z " fill="#323232" transform="translate(223.0625,277.9375)"/>
<path d="M0 0 C7.92 0 15.84 0 24 0 C24.33 1.65 24.66 3.3 25 5 C15.595 5.495 15.595 5.495 6 6 C6 9.63 6 13.26 6 17 C10.62 17.66 15.24 18.32 20 19 C20.33 20.32 20.66 21.64 21 23 C18.23547967 24.38226016 15.9538637 24.09525387 12.875 24.0625 C9.966875 24.0315625 9.966875 24.0315625 7 24 C7 28.62 7 33.24 7 38 C8.05960937 38.09796875 9.11921875 38.1959375 10.2109375 38.296875 C11.59906397 38.44694273 12.98707963 38.59803792 14.375 38.75 C15.42300781 38.8428125 15.42300781 38.8428125 16.4921875 38.9375 C18.5234375 39.171875 18.5234375 39.171875 22 40 C23.4765625 42.078125 23.4765625 42.078125 24 44 C18.85361609 45.04756765 13.91243571 45.15014003 8.6875 45.125 C7.45290039 45.13080078 7.45290039 45.13080078 6.19335938 45.13671875 C0.12671604 45.12671604 0.12671604 45.12671604 -1 44 C-1.06354504 42.61724444 -1.05720954 41.23117221 -1.02172852 39.84741211 C-1.00163223 38.96657455 -0.98153595 38.085737 -0.96083069 37.1782074 C-0.93379562 36.22092239 -0.90676056 35.26363739 -0.87890625 34.27734375 C-0.85529526 33.30213272 -0.83168427 32.32692169 -0.80735779 31.32215881 C-0.73051362 28.19379866 -0.64657909 25.06567328 -0.5625 21.9375 C-0.50930007 19.82227728 -0.45655956 17.70704296 -0.40429688 15.59179688 C-0.27573784 10.3943387 -0.13760561 5.19725817 0 0 Z " fill="#292929" transform="translate(286,278)"/>
<path d="M0 0 C2.475 0.495 2.475 0.495 5 1 C5.25394531 2.17175781 5.50789063 3.34351563 5.76953125 4.55078125 C7.63648439 13.09764176 9.55626209 21.59502264 12 30 C14.27355813 26.58966281 15.0260778 23.36073563 15.9375 19.4375 C16.28472945 17.996978 16.6336889 16.55687191 16.984375 15.1171875 C17.15517578 14.41561523 17.32597656 13.71404297 17.50195312 12.99121094 C20.33485939 1.66514061 20.33485939 1.66514061 22 0 C23.66617115 -0.04063832 25.33388095 -0.042721 27 0 C25.42401007 8.30645118 23.52447899 16.52718358 21.5625 24.75 C21.33711548 25.71848877 21.33711548 25.71848877 21.10717773 26.70654297 C20.6633695 28.61336325 20.20874809 30.51765646 19.75390625 32.421875 C19.48908447 33.54174805 19.2242627 34.66162109 18.95141602 35.81542969 C17.96549055 39.11550969 16.62690335 41.97073167 15 45 C13.02 44.67 11.04 44.34 9 44 C6.77941543 37.44848809 5.33681574 30.84917489 4.13232422 24.04931641 C3.19691927 18.83742244 1.97622762 13.75080452 0.55078125 8.6484375 C-0.06117077 5.7058597 -0.09229358 2.99734403 0 0 Z " fill="#2E2E2E" transform="translate(113,278)"/>
<path d="M0 0 C8.50697255 0.05272917 13.15308129 3.31470773 19.625 8.625 C19.295 10.275 18.965 11.925 18.625 13.625 C17.635 13.955 16.645 14.285 15.625 14.625 C15.625 15.285 15.625 15.945 15.625 16.625 C12.41568405 18.46935792 9.64719989 19.04793406 5.984375 19.4765625 C4.37949219 19.66992188 4.37949219 19.66992188 2.7421875 19.8671875 C1.63101562 19.99351562 0.51984375 20.11984375 -0.625 20.25 C-1.75164062 20.3840625 -2.87828125 20.518125 -4.0390625 20.65625 C-6.81699438 20.98583514 -9.59555304 21.30849064 -12.375 21.625 C-12.705 20.635 -13.035 19.645 -13.375 18.625 C-12.715 17.635 -12.055 16.645 -11.375 15.625 C-10.715 15.625 -10.055 15.625 -9.375 15.625 C-9.560625 14.8825 -9.74625 14.14 -9.9375 13.375 C-10.36703108 10.67509037 -10.22622974 9.17868923 -9.375 6.625 C-10.365 6.955 -11.355 7.285 -12.375 7.625 C-13.035 6.965 -13.695 6.305 -14.375 5.625 C-6.95 4.14 -6.95 4.14 0.625 2.625 C-2.345 2.625 -5.315 2.625 -8.375 2.625 C-5.62138352 -0.12861648 -3.85511688 0.16169364 0 0 Z " fill="#CEB993" transform="translate(286.375,147.375)"/>
<path d="M0 0 C2.31 0 4.62 0 7 0 C7.495 4.455 7.495 4.455 8 9 C10.475 9.495 10.475 9.495 13 10 C13 10.33 13 10.66 13 11 C12.06728271 11.02505615 11.13456543 11.0501123 10.17358398 11.07592773 C6.68650084 11.17152068 3.19955812 11.27072459 -0.28735352 11.37231445 C-1.79154499 11.41541126 -3.29577748 11.45710207 -4.80004883 11.49731445 C-6.97229326 11.55563457 -9.14433602 11.61914484 -11.31640625 11.68359375 C-12.62037354 11.72025146 -13.92434082 11.75690918 -15.26782227 11.79467773 C-23.50918573 12.1011585 -23.50918573 12.1011585 -30.1875 16.375 C-32.69465769 18.77492691 -35.18432759 20.9647246 -38 23 C-34.64067076 26.60640862 -31.79784451 29.36660964 -26.70703125 29.62109375 C-25.07464166 29.59150259 -23.44262997 29.5283168 -21.8125 29.4375 C-20.92989502 29.41300781 -20.04729004 29.38851562 -19.13793945 29.36328125 C-17.18295451 29.30430836 -15.22837901 29.23044278 -13.27441406 29.14404297 C-9.64970179 28.98459022 -6.02487575 28.8672609 -2.3984375 28.75390625 C4.40245384 28.53490975 11.20132359 28.27898094 18 28 C18 29.32 18 30.64 18 32 C18.83402344 31.7834375 19.66804688 31.566875 20.52734375 31.34375 C27.20956155 29.69041776 33.12040768 28.65019022 40 29 C36.53422122 31.31051918 33.3904297 31.86402427 29.375 32.5625 C28.29303345 32.75646362 28.29303345 32.75646362 27.18920898 32.9543457 C19.04943452 34.38592751 11.27291231 35.13131607 3 35 C3.01160156 35.80824219 3.02320313 36.61648437 3.03515625 37.44921875 C3.04417969 38.51785156 3.05320313 39.58648437 3.0625 40.6875 C3.07410156 41.74324219 3.08570313 42.79898438 3.09765625 43.88671875 C3.00865425 46.72410262 2.64939838 49.2438919 2 52 C1.67 52 1.34 52 1 52 C0.18647174 47.52559456 -0.05606391 43.28772742 -0.03125 38.734375 C-0.02673828 37.65897461 -0.02222656 36.58357422 -0.01757812 35.47558594 C-0.01177734 34.65864258 -0.00597656 33.84169922 0 33 C-1.3912207 33.05498657 -1.3912207 33.05498657 -2.81054688 33.11108398 C-6.28482004 33.23110354 -9.75686178 33.31846773 -13.23242188 33.38452148 C-14.73017338 33.41951417 -16.2276894 33.46712827 -17.72460938 33.52807617 C-31.75441821 34.08459192 -31.75441821 34.08459192 -37.03125 29.59765625 C-40 26.48425624 -40 26.48425624 -40 24 C-40.66 24 -41.32 24 -42 24 C-41.673444 21.02834041 -41.16110849 20.13425708 -38.8203125 18.18359375 C-37.93085938 17.60738281 -37.04140625 17.03117187 -36.125 16.4375 C-32.6430331 14.29731879 -32.6430331 14.29731879 -29.83032227 11.42675781 C-26.95119298 9.18244255 -23.77698644 9.51905797 -20.26953125 9.48828125 C-19.14390022 9.46135445 -19.14390022 9.46135445 -17.99552917 9.43388367 C-15.6012431 9.37974813 -13.20715669 9.34587584 -10.8125 9.3125 C-9.18812323 9.27932964 -7.56377283 9.24484024 -5.93945312 9.20898438 C-1.95977944 9.1240203 2.0198347 9.05722535 6 9 C6 6.36 6 3.72 6 1 C4.02 1 2.04 1 0 1 C0 0.67 0 0.34 0 0 Z " fill="#4F473C" transform="translate(234,172)"/>
<path d="M0 0 C2.3125 -0.25 2.3125 -0.25 5 0 C8.11609339 2.99624365 9.37113856 7.06358485 11 11 C11.98537521 13.0072458 12.98063057 15.00980253 14 17 C17.55506117 11.44805341 20.84985504 5.79090478 24 0 C26.475 0.495 26.475 0.495 29 1 C28.33621547 4.05697101 27.31062958 6.68921586 25.96875 9.51171875 C25.57042969 10.35154297 25.17210937 11.19136719 24.76171875 12.05664062 C24.13716797 13.35891602 24.13716797 13.35891602 23.5 14.6875 C22.87544922 16.00717773 22.87544922 16.00717773 22.23828125 17.35351562 C19.13626427 23.86373573 19.13626427 23.86373573 18 25 C17.91348389 26.41570123 17.89295096 27.835595 17.90234375 29.25390625 C17.90717773 30.53491211 17.90717773 30.53491211 17.91210938 31.84179688 C17.92048828 32.73962891 17.92886719 33.63746094 17.9375 34.5625 C17.94201172 35.46419922 17.94652344 36.36589844 17.95117188 37.29492188 C17.96299775 39.53001314 17.9794778 41.76497437 18 44 C15.69 44 13.38 44 11 44 C11.00902344 42.8140625 11.01804688 41.628125 11.02734375 40.40625 C10.87297863 26.89368886 7.53865769 17.57416102 1.2734375 5.73828125 C0 3 0 3 0 0 Z " fill="#414141" transform="translate(179,278)"/>
<path d="M0 0 C5.28 0.33 10.56 0.66 16 1 C16 2.32 16 3.64 16 5 C14.35 5 12.7 5 11 5 C11.33 5.66 11.66 6.32 12 7 C12.08649451 9.48099734 12.11565054 11.93344928 12.09765625 14.4140625 C12.0962413 15.14370209 12.09482635 15.87334167 12.09336853 16.62509155 C12.08776531 18.95843585 12.07521235 21.29168464 12.0625 23.625 C12.05748541 25.20572778 12.05292243 26.78645707 12.04882812 28.3671875 C12.03779484 32.24482854 12.02052811 36.12239807 12 40 C13.98 40 15.96 40 18 40 C18 41.65 18 43.3 18 45 C12.06 45 6.12 45 0 45 C0 43.35 0 41.7 0 40 C1.98 40 3.96 40 6 40 C5.96970703 39.4016333 5.93941406 38.8032666 5.90820312 38.18676758 C5.3555093 27.11907369 4.81177206 16.08453423 5 5 C3.35 5 1.7 5 0 5 C0 3.35 0 1.7 0 0 Z " fill="#1D1D1D" transform="translate(368,278)"/>
<path d="M0 0 C0.09886835 4.78712933 0.17146623 9.57366475 0.21972656 14.36157227 C0.23984381 15.99025829 0.26714137 17.61887208 0.30175781 19.24731445 C0.35027429 21.58823458 0.37296632 23.92820018 0.390625 26.26953125 C0.41127014 26.99775589 0.43191528 27.72598053 0.45318604 28.47627258 C0.45466332 31.80359218 0.455041 33.52489742 -1.89941406 35.9831543 C-4 37 -4 37 -6 37 C-9.71489491 31.79914712 -10.12847919 27.08127557 -10.09765625 20.82421875 C-10.09443359 19.66728516 -10.09121094 18.51035156 -10.08789062 17.31835938 C-10.07951172 16.12017578 -10.07113281 14.92199219 -10.0625 13.6875 C-10.05798828 12.46998047 -10.05347656 11.25246094 -10.04882812 9.99804688 C-10.03706578 6.99864774 -10.02062826 3.99934911 -10 1 C-6.56484998 0.37542727 -3.50935186 0 0 0 Z " fill="#F6E9CD" transform="translate(253,222)"/>
<path d="M0 0 C-0.66 0.33 -1.32 0.66 -2 1 C-2 1.66 -2 2.32 -2 3 C-9.73059495 4.35709504 -17.14453364 5.31918373 -25 5 C-24.67 7.64 -24.34 10.28 -24 13 C-23.37351563 12.90460938 -22.74703125 12.80921875 -22.1015625 12.7109375 C-20.87566406 12.54464844 -20.87566406 12.54464844 -19.625 12.375 C-18.81289063 12.25898438 -18.00078125 12.14296875 -17.1640625 12.0234375 C-16.44992187 12.01570312 -15.73578125 12.00796875 -15 12 C-11.92339396 15.07660604 -12.01746388 17.34335819 -11.90234375 21.671875 C-11.90894283 23.03128449 -11.92079754 24.3906771 -11.9375 25.75 C-11.94201172 26.44738281 -11.94652344 27.14476562 -11.95117188 27.86328125 C-11.9628998 29.57555803 -11.98083347 31.28779033 -12 33 C-15.47325181 34.1577506 -18.36067448 34.06866652 -22 34 C-21.67 33.34 -21.34 32.68 -21 32 C-18.67843403 31.59270772 -16.3431213 31.25561323 -14 31 C-14.33 30.34 -14.66 29.68 -15 29 C-15.22858114 26.9625237 -15.41024278 24.91959697 -15.5625 22.875 C-15.68818359 21.23144531 -15.68818359 21.23144531 -15.81640625 19.5546875 C-15.87699219 18.71164063 -15.93757813 17.86859375 -16 17 C-17.28777344 16.86722656 -18.57554687 16.73445313 -19.90234375 16.59765625 C-21.58075362 16.41950101 -23.25913773 16.24110308 -24.9375 16.0625 C-25.78763672 15.97548828 -26.63777344 15.88847656 -27.51367188 15.79882812 C-28.32255859 15.71181641 -29.13144531 15.62480469 -29.96484375 15.53515625 C-30.7137085 15.456604 -31.46257324 15.37805176 -32.23413086 15.29711914 C-34 15 -34 15 -35 14 C-35.07179964 12.48071962 -35.08392007 10.95832518 -35.0625 9.4375 C-35.05347656 8.61121094 -35.04445312 7.78492188 -35.03515625 6.93359375 C-35.02355469 6.29550781 -35.01195312 5.65742188 -35 5 C-35.99 4.67 -36.98 4.34 -38 4 C-31.14735283 2.55247453 -24.27066784 1.6211225 -17.3125 0.875 C-16.51739014 0.78750488 -15.72228027 0.70000977 -14.90307617 0.60986328 C-9.90720827 0.09446186 -5.02214419 -0.08035431 0 0 Z " fill="#32291E" transform="translate(276,167)"/>
<path d="M0 0 C3.67664588 2.5001192 4.72506063 3.97879663 5.875 8.25 C5.91625 9.1575 5.9575 10.065 6 11 C3.55771144 13.44228856 -1.73627988 12.92665797 -5 13 C-12.95890411 12.04109589 -12.95890411 12.04109589 -16 9 C-16 7.68 -16 6.36 -16 5 C-16.66 5 -17.32 5 -18 5 C-18 6.65 -18 8.3 -18 10 C-18.66 8.68 -19.32 7.36 -20 6 C-19.01 4.68 -18.02 3.36 -17 2 C-17 2.66 -17 3.32 -17 4 C-16.01 4 -15.02 4 -14 4 C-13.67 3.01 -13.34 2.02 -13 1 C-9.03597587 -0.98201207 -4.31055721 -0.54737234 0 0 Z " fill="#BCA78F" transform="translate(240,252)"/>
<path d="M0 0 C2.31 0 4.62 0 7 0 C7.495 4.455 7.495 4.455 8 9 C10.475 9.495 10.475 9.495 13 10 C13 10.33 13 10.66 13 11 C12.06728271 11.02505615 11.13456543 11.0501123 10.17358398 11.07592773 C6.68650084 11.17152068 3.19955812 11.27072459 -0.28735352 11.37231445 C-1.79154499 11.41541126 -3.29577748 11.45710207 -4.80004883 11.49731445 C-6.97229326 11.55563457 -9.14433602 11.61914484 -11.31640625 11.68359375 C-12.62037354 11.72025146 -13.92434082 11.75690918 -15.26782227 11.79467773 C-23.50918573 12.1011585 -23.50918573 12.1011585 -30.1875 16.375 C-32.69465769 18.77492691 -35.18432759 20.9647246 -38 23 C-36.87720538 23.98169476 -35.75168527 24.96027298 -34.625 25.9375 C-33.68527344 26.75541016 -33.68527344 26.75541016 -32.7265625 27.58984375 C-29.97425025 29.83777299 -28.13039264 30.15391501 -24.6484375 30.31640625 C-23.79765625 30.35830078 -22.946875 30.40019531 -22.0703125 30.44335938 C-21.18085938 30.48267578 -20.29140625 30.52199219 -19.375 30.5625 C-18.4778125 30.60568359 -17.580625 30.64886719 -16.65625 30.69335938 C-14.43765717 30.79956861 -12.2189512 30.90161194 -10 31 C-10 31.33 -10 31.66 -10 32 C-13.68689047 32.17550193 -17.37269701 32.2812482 -21.0625 32.375 C-22.10083984 32.42527344 -23.13917969 32.47554687 -24.20898438 32.52734375 C-29.49485181 32.62802694 -33.06885366 32.56417775 -37.24609375 29.1015625 C-38.88842773 27.49462891 -38.88842773 27.49462891 -40 26 C-40 25.34 -40 24.68 -40 24 C-40.66 24 -41.32 24 -42 24 C-41.673444 21.02834041 -41.16110849 20.13425708 -38.8203125 18.18359375 C-37.93085938 17.60738281 -37.04140625 17.03117187 -36.125 16.4375 C-32.6430331 14.29731879 -32.6430331 14.29731879 -29.83032227 11.42675781 C-26.95119298 9.18244255 -23.77698644 9.51905797 -20.26953125 9.48828125 C-19.14390022 9.46135445 -19.14390022 9.46135445 -17.99552917 9.43388367 C-15.6012431 9.37974813 -13.20715669 9.34587584 -10.8125 9.3125 C-9.18812323 9.27932964 -7.56377283 9.24484024 -5.93945312 9.20898438 C-1.95977944 9.1240203 2.0198347 9.05722535 6 9 C6 6.36 6 3.72 6 1 C4.02 1 2.04 1 0 1 C0 0.67 0 0.34 0 0 Z " fill="#322C25" transform="translate(234,172)"/>
<path d="M0 0 C4.52346473 2.26173236 5.05828666 3.53405933 7 8 C7.33 5.69 7.66 3.38 8 1 C9.32 1 10.64 1 12 1 C12 6.61 12 12.22 12 18 C7 17 7 17 5.1875 14.4375 C4.795625 13.633125 4.40375 12.82875 4 12 C3.67 13.98 3.34 15.96 3 18 C2.01 18 1.02 18 0 18 C0 12.06 0 6.12 0 0 Z " fill="#5F5F5F" transform="translate(394,338)"/>
<path d="M0 0 C1.20849609 -0.00386719 1.20849609 -0.00386719 2.44140625 -0.0078125 C4.4375 0.125 4.4375 0.125 5.4375 1.125 C5.51008946 3.31139453 5.52123783 5.50000389 5.5 7.6875 C5.49097656 8.88503906 5.48195312 10.08257812 5.47265625 11.31640625 C5.46105469 12.24324219 5.44945312 13.17007813 5.4375 14.125 C5.98462646 14.00906494 6.53175293 13.89312988 7.09545898 13.77368164 C19.23932469 11.23636565 31.02954438 9.4502413 43.4375 9.125 C39.70945635 12.85304365 33.67178733 12.82703623 28.625 13.75 C27.45517578 13.97945312 26.28535156 14.20890625 25.08007812 14.4453125 C17.1168741 15.92274848 9.52926586 16.4131191 1.4375 16.125 C2.0975 15.795 2.7575 15.465 3.4375 15.125 C3.4375 10.835 3.4375 6.545 3.4375 2.125 C-1.0175 2.62 -1.0175 2.62 -5.5625 3.125 C-5.5625 6.755 -5.5625 10.385 -5.5625 14.125 C-5.8925 14.125 -6.2225 14.125 -6.5625 14.125 C-6.5625 9.835 -6.5625 5.545 -6.5625 1.125 C-4.1828388 -0.0648306 -2.64764265 -0.00849966 0 0 Z " fill="#2A2723" transform="translate(245.5625,139.875)"/>
<path d="M0 0 C9 0 9 0 11.125 1.5625 C12.36785045 5.02472625 11.83699362 7.45887314 11 11 C10.01 12.485 10.01 12.485 9 14 C9.7425 14.680625 9.7425 14.680625 10.5 15.375 C12 17 12 17 12 19 C10.35 18.67 8.7 18.34 7 18 C7 17.34 7 16.68 7 16 C6.34 16 5.68 16 5 16 C4.67 16 4.34 16 4 16 C3.67 16.99 3.34 17.98 3 19 C2.01 18.67 1.02 18.34 0 18 C0 12.06 0 6.12 0 0 Z M3 3 C3 5.31 3 7.62 3 10 C4.65 9.67 6.3 9.34 8 9 C8 7.35 8 5.7 8 4 C6.35 3.67 4.7 3.34 3 3 Z " fill="#323232" transform="translate(336,338)"/>
<path d="M0 0 C4 1 4 1 5.265625 3.06640625 C6.17708333 5.37760417 7.08854167 7.68880208 8 10 C8.33 6.7 8.66 3.4 9 0 C9.99 0 10.98 0 12 0 C12 5.94 12 11.88 12 18 C10.68 18 9.36 18 8 18 C7.67 16.68 7.34 15.36 7 14 C6.34 14 5.68 14 5 14 C4.67 13.01 4.34 12.02 4 11 C3.67 13.31 3.34 15.62 3 18 C2.01 18 1.02 18 0 18 C0 12.06 0 6.12 0 0 Z " fill="#515151" transform="translate(204,338)"/>
<path d="M0 0 C5.28 0.33 10.56 0.66 16 1 C16 2.32 16 3.64 16 5 C14.35 5 12.7 5 11 5 C11.33 5.66 11.66 6.32 12 7 C12.08649451 9.48099734 12.11565054 11.93344928 12.09765625 14.4140625 C12.0962413 15.14370209 12.09482635 15.87334167 12.09336853 16.62509155 C12.08776531 18.95843585 12.07521235 21.29168464 12.0625 23.625 C12.05748541 25.20572778 12.05292243 26.78645707 12.04882812 28.3671875 C12.03779484 32.24482854 12.02052811 36.12239807 12 40 C11.67 40 11.34 40 11 40 C10.67 30.43 10.34 20.86 10 11 C6.78918149 13.89459074 6.78918149 13.89459074 5 18 C5 13.71 5 9.42 5 5 C3.35 5 1.7 5 0 5 C0 3.35 0 1.7 0 0 Z " fill="#9D9D9D" transform="translate(368,278)"/>
<path d="M0 0 C2.5048111 1.87860833 2.98700625 2.96101874 4 6 C4.27334392 10.23683074 4.36356384 13.03049641 2.875 17 C1 19 1 19 -2 19.4375 C-5 19 -5 19 -8 17 C-8.3984375 13.84765625 -8.3984375 13.84765625 -8.375 10.0625 C-8.38273437 8.81597656 -8.39046875 7.56945312 -8.3984375 6.28515625 C-8 3 -8 3 -6.6328125 1.08203125 C-4.28186312 -0.47589454 -2.75840092 -0.41376014 0 0 Z M-4 4 C-5.1577506 7.47325181 -5.06866652 10.36067448 -5 14 C-3.02 14.99 -3.02 14.99 -1 16 C0.25949049 14.96593327 0.25949049 14.96593327 0.09765625 12.71484375 C0.08605469 11.79832031 0.07445312 10.88179688 0.0625 9.9375 C0.04896484 8.55884766 0.04896484 8.55884766 0.03515625 7.15234375 C0.02355469 6.44207031 0.01195312 5.73179687 0 5 C-1.32 4.67 -2.64 4.34 -4 4 Z " fill="#3F3F3F" transform="translate(328,337)"/>
<path d="M0 0 C5.98993047 -0.3152595 9.63560356 0.31780178 15 3 C15.34065835 6.57691271 15.11935116 8.73837147 13.6171875 12.03125 C9.90524693 16.24180945 6.24138639 16.78073685 0.875 17.875 C-0.47464844 18.19210938 -0.47464844 18.19210938 -1.8515625 18.515625 C-7.96770095 19.86890851 -13.74736788 20.2587646 -20 20 C-17.70131844 17.70131844 -16.57442008 17.48530421 -13.45703125 16.78125 C-12.54759766 16.57113281 -11.63816406 16.36101562 -10.70117188 16.14453125 C-9.2712793 15.82548828 -9.2712793 15.82548828 -7.8125 15.5 C-5.9436748 15.07438764 -4.07517754 14.64733247 -2.20703125 14.21875 C-1.31838379 14.01507813 -0.42973633 13.81140625 0.48583984 13.6015625 C3.69152988 12.83453781 6.84213652 11.94342809 10 11 C10.33 9.02 10.66 7.04 11 5 C10.28972656 4.80664062 9.57945312 4.61328125 8.84765625 4.4140625 C7.46900391 4.02347656 7.46900391 4.02347656 6.0625 3.625 C5.14597656 3.36976563 4.22945313 3.11453125 3.28515625 2.8515625 C1 2 1 2 0 0 Z " fill="#4A453B" transform="translate(276,200)"/>
<path d="M0 0 C8 0 8 0 10 1.125 C12.03666956 4.94375543 11.184469 8.37741711 10 12.375 C9.67 13.24125 9.34 14.1075 9 15 C9.99 15.66 10.98 16.32 12 17 C12 17.66 12 18.32 12 19 C9.625 18.75 9.625 18.75 7 18 C5.6875 15.9375 5.6875 15.9375 5 14 C4.34 14 3.68 14 3 14 C2.67 15.65 2.34 17.3 2 19 C1.34 19 0.68 19 0 19 C0 12.73 0 6.46 0 0 Z M2 3 C2 4.98 2 6.96 2 9 C4.475 9.495 4.475 9.495 7 10 C7 7.69 7 5.38 7 3 C5.35 3 3.7 3 2 3 Z " fill="#414141" transform="translate(149,338)"/>
<path d="M0 0 C1.98 1.65 3.96 3.3 6 5 C7.65 3.35 9.3 1.7 11 0 C11.66 0.33 12.32 0.66 13 1 C13 1.99 13 2.98 13 4 C12.34 4 11.68 4 11 4 C9.60738122 6.67221575 9.60738122 6.67221575 9 10 C10.80132223 13.20212693 10.80132223 13.20212693 13 16 C13 16.99 13 17.98 13 19 C12.01 19 11.02 19 10 19 C10 18.34 10 17.68 10 17 C9.34 17 8.68 17 8 17 C7.34 16.01 6.68 15.02 6 14 C2.88667752 14.66868314 2.88667752 14.66868314 1.8125 17.0625 C1.544375 17.701875 1.27625 18.34125 1 19 C0.34 19 -0.32 19 -1 19 C-0.43454163 15.04179141 0.80902348 12.3340947 3 9 C2.319375 8.2575 1.63875 7.515 0.9375 6.75 C-1 4 -1 4 -0.75 1.6875 C-0.5025 1.130625 -0.255 0.57375 0 0 Z " fill="#474747" transform="translate(86,337)"/>
<path d="M0 0 C7.625 0 7.625 0 11 3 C12.70229709 6.72730453 13.24673975 9.86499715 12.375 13.875 C10.72274827 16.42847994 9.91338036 17.13385989 7 18 C4.69 18 2.38 18 0 18 C0 12.06 0 6.12 0 0 Z M3 3 C2.91840426 7.16138263 3.01751476 10.9472484 4 15 C5.32 14.67 6.64 14.34 8 14 C8 13.34 8 12.68 8 12 C8.66 12 9.32 12 10 12 C9.42415568 9.61435923 8.77772405 7.33317216 8 5 C7.34 5 6.68 5 6 5 C6 4.34 6 3.68 6 3 C5.01 3 4.02 3 3 3 Z " fill="#303030" transform="translate(220,338)"/>
<path d="M0 0 C0.99 0 1.98 0 3 0 C3 2.31 3 4.62 3 7 C4.32 7 5.64 7 7 7 C7 4.69 7 2.38 7 0 C7.99 0 8.98 0 10 0 C10.95619733 3.99795892 11.1039592 7.70803922 11.0625 11.8125 C11.05347656 12.97394531 11.04445313 14.13539063 11.03515625 15.33203125 C11.02355469 16.21246094 11.01195312 17.09289062 11 18 C9.68 18 8.36 18 7 18 C6.67 15.69 6.34 13.38 6 11 C5.01 11 4.02 11 3 11 C3 13.31 3 15.62 3 18 C2.01 18 1.02 18 0 18 C0 12.06 0 6.12 0 0 Z " fill="#666566" transform="translate(305,338)"/>
<path d="M0 0 C2.00402466 2.97263658 2.27155399 5.46514548 2.25 9 C2.25515625 9.845625 2.2603125 10.69125 2.265625 11.5625 C1.98531155 14.13478811 1.2948187 15.7803108 0 18 C-5.51532033 18.36768802 -5.51532033 18.36768802 -7.8125 16.625 C-9.84625053 13.84197296 -10.15924415 12.02700459 -10.1875 8.625 C-10.20167969 7.85414063 -10.21585937 7.08328125 -10.23046875 6.2890625 C-9.97404645 3.7422241 -9.35625154 2.16048491 -8 0 C-5.04063954 -1.47968023 -3.13239866 -0.84835797 0 0 Z M-5 3 C-6.98362069 5.91708924 -6.9876191 7.12380904 -6.625 10.75 C-6.41875 11.8225 -6.2125 12.895 -6 14 C-4.02 14.495 -4.02 14.495 -2 15 C-0.50501087 12.01002175 -0.88422554 9.29957225 -1 6 C-1.33 5.01 -1.66 4.02 -2 3 C-2.99 3 -3.98 3 -5 3 Z " fill="#5B5B5B" transform="translate(387,338)"/>
<path d="M0 0 C2.18359375 0.015625 2.18359375 0.015625 4.125 0.375 C6.0625 2.75 6.0625 2.75 7.125 5.375 C7.455 6.035 7.785 6.695 8.125 7.375 C8.16522391 9.7079866 8.16820247 12.04206666 8.125 14.375 C5.815 14.705 3.505 15.035 1.125 15.375 C0.8775 14.42625 0.63 13.4775 0.375 12.5 C-0.5607077 9.28806809 -0.5607077 9.28806809 -3 8 C-3.61875 7.79375 -4.2375 7.5875 -4.875 7.375 C-4.91754356 5.37545254 -4.91580783 3.37458364 -4.875 1.375 C-3.875 0.375 -3.875 0.375 0 0 Z " fill="#B19C85" transform="translate(259.875,248.625)"/>
<path d="M0 0 C2.9375 0.875 2.9375 0.875 4.9375 3.875 C5.1328125 7.01171875 5.1328125 7.01171875 5.0625 10.5625 C5.04445312 11.74199219 5.02640625 12.92148437 5.0078125 14.13671875 C4.97300781 15.49216797 4.97300781 15.49216797 4.9375 16.875 C4.2775 16.875 3.6175 16.875 2.9375 16.875 C2.9375 17.535 2.9375 18.195 2.9375 18.875 C-0.4375 19 -0.4375 19 -4.0625 18.875 C-6.92586371 16.01163629 -6.36266187 13.92271654 -6.375 9.9375 C-6.39175781 8.69097656 -6.40851563 7.44445312 -6.42578125 6.16015625 C-6.0625 2.875 -6.0625 2.875 -4.734375 0.92578125 C-3.0625 -0.125 -3.0625 -0.125 0 0 Z M-2.0625 3.875 C-3.32199049 4.90906673 -3.32199049 4.90906673 -3.16015625 7.16015625 C-3.14855469 8.07667969 -3.13695312 8.99320312 -3.125 9.9375 C-3.11597656 10.85660156 -3.10695312 11.77570313 -3.09765625 12.72265625 C-3.08605469 13.43292969 -3.07445312 14.14320313 -3.0625 14.875 C-1.11646726 15.46570014 -1.11646726 15.46570014 0.9375 15.875 C2.15761391 14.87442021 2.15761391 14.87442021 2.0703125 12.87890625 C2.06773437 12.07324219 2.06515625 11.26757812 2.0625 10.4375 C2.06507813 9.63441406 2.06765625 8.83132813 2.0703125 8.00390625 C2.07328326 5.82102069 2.07328326 5.82102069 0.9375 3.875 C-0.0525 3.875 -1.0425 3.875 -2.0625 3.875 Z " fill="#4F4F4F" transform="translate(139.0625,337.125)"/>
<path d="M0 0 C3.96 0 7.92 0 12 0 C11.16184862 4.19075691 10.49330151 6.28073843 8.4375 9.8125 C7.98246094 10.60269531 7.52742188 11.39289063 7.05859375 12.20703125 C6.53458984 13.09455078 6.53458984 13.09455078 6 14 C7.98 14.66 9.96 15.32 12 16 C12 16.66 12 17.32 12 18 C8.04 18 4.08 18 0 18 C0.94174603 14.23301587 2.04997107 12.00430209 4.0625 8.75 C4.61035156 7.85796875 5.15820312 6.9659375 5.72265625 6.046875 C6.35494141 5.03367187 6.35494141 5.03367187 7 4 C4.69 3.67 2.38 3.34 0 3 C0 2.01 0 1.02 0 0 Z " fill="#424242" transform="translate(362,338)"/>
<path d="M0 0 C1.175625 0.0825 2.35125 0.165 3.5625 0.25 C4.2225 1.24 4.8825 2.23 5.5625 3.25 C2.5625 4.25 2.5625 4.25 -0.4375 4.25 C-0.4375 4.91 -0.4375 5.57 -0.4375 6.25 C0.34625 6.70375 1.13 7.1575 1.9375 7.625 C4.71869017 9.34668915 5.62605738 10.15973935 6.5625 13.25 C6.22309264 15.55797001 5.60494769 17.16510461 4.5625 19.25 C-2.1875 19.375 -2.1875 19.375 -4.4375 18.25 C-4.4375 17.26 -4.4375 16.27 -4.4375 15.25 C-2.1275 15.58 0.1825 15.91 2.5625 16.25 C1.15895587 12.74113968 -0.08115823 11.8232852 -3.4375 10.25 C-5.4375 7.25 -5.4375 7.25 -5.125 4.125 C-4.21183628 0.30631537 -4.21183628 0.30631537 0 0 Z " fill="#4B4B4B" transform="translate(414.4375,336.75)"/>
<path d="M0 0 C3.3 0 6.6 0 10 0 C10 0.99 10 1.98 10 3 C7.69 3 5.38 3 3 3 C3 4.32 3 5.64 3 7 C4.65 7 6.3 7 8 7 C8 7.99 8 8.98 8 10 C6.35 10 4.7 10 3 10 C3 11.65 3 13.3 3 15 C4.98 15 6.96 15 9 15 C9 15.99 9 16.98 9 18 C5.7 18 2.4 18 -1 18 C-1.18451025 5.33029613 -1.18451025 5.33029613 0 0 Z " fill="#444444" transform="translate(165,338)"/>
<path d="M0 0 C3.3 0 6.6 0 10 0 C10 0.99 10 1.98 10 3 C7.69 3 5.38 3 3 3 C3 4.32 3 5.64 3 7 C4.65 7 6.3 7 8 7 C8.33 7.99 8.66 8.98 9 10 C7.02 10 5.04 10 3 10 C3 11.65 3 13.3 3 15 C4.98 15 6.96 15 9 15 C9.33 15.99 9.66 16.98 10 18 C6.37 18 2.74 18 -1 18 C-0.505 9.09 -0.505 9.09 0 0 Z " fill="#4F4F4F" transform="translate(190,338)"/>
<path d="M0 0 C2.97 0 5.94 0 9 0 C11.45811625 3.68717438 11.31118164 5.64345704 11 10 C10.01 11.485 10.01 11.485 9 13 C5.875 13.1875 5.875 13.1875 3 13 C3 14.65 3 16.3 3 18 C2.01 18 1.02 18 0 18 C0 12.06 0 6.12 0 0 Z M2 3 C2.33 5.31 2.66 7.62 3 10 C4.32 9.67 5.64 9.34 7 9 C8.01111093 5.95086772 8.01111093 5.95086772 7 3 C5.35 3 3.7 3 2 3 Z " fill="#444444" transform="translate(103,338)"/>
<path d="M0 0 C2.46968633 2.46968633 3.06997969 4.57488587 4.1875 7.875 C4.55230469 8.92429687 4.91710937 9.97359375 5.29296875 11.0546875 C5.98462433 13.93594885 6.03230681 15.27786612 5 18 C3.125 18.625 3.125 18.625 1 19 C-2.28177013 15.71822987 -2.75405911 11.41742679 -4 7 C-8.29 6.34 -12.58 5.68 -17 5 C-17 4.67 -17 4.34 -17 4 C-11.84828377 3.90961901 -7.08086796 4.15318867 -2 5 C-1.34 3.35 -0.68 1.7 0 0 Z " fill="#363636" transform="translate(357,305)"/>
<path d="M0 0 C0.33 1.32 0.66 2.64 1 4 C-0.65 4 -2.3 4 -4 4 C-4 4.66 -4 5.32 -4 6 C-3.030625 6.556875 -2.06125 7.11375 -1.0625 7.6875 C2 10 2 10 3 13.625 C3 14.73875 3 15.8525 3 17 C1 19 1 19 -2.625 19.125 C-3.73875 19.08375 -4.8525 19.0425 -6 19 C-6.66 17.68 -7.32 16.36 -8 15 C-5.69 15.33 -3.38 15.66 -1 16 C-1 14.68 -1 13.36 -1 12 C-1.99 12 -2.98 12 -4 12 C-4 11.34 -4 10.68 -4 10 C-5.32 9.34 -6.64 8.68 -8 8 C-8 5.69 -8 3.38 -8 1 C-5.29120665 -0.35439668 -2.99066732 -0.06501451 0 0 Z " fill="#363636" transform="translate(274,337)"/>
<path d="M0 0 C3.3 0 6.6 0 10 0 C10.33 0.99 10.66 1.98 11 3 C8.36 3 5.72 3 3 3 C3 4.32 3 5.64 3 7 C4.98 7 6.96 7 9 7 C9 7.99 9 8.98 9 10 C7.02 10 5.04 10 3 10 C3 11.65 3 13.3 3 15 C4.98 15 6.96 15 9 15 C9.33 15.99 9.66 16.98 10 18 C6.7 18 3.4 18 0 18 C0 12.06 0 6.12 0 0 Z " fill="#414141" transform="translate(252,338)"/>
<path d="M0 0 C3.0625 0.125 3.0625 0.125 5.0625 1.125 C5.0625 2.115 5.0625 3.105 5.0625 4.125 C3.4125 4.125 1.7625 4.125 0.0625 4.125 C0.0625 5.445 0.0625 6.765 0.0625 8.125 C0.866875 8.434375 1.67125 8.74375 2.5 9.0625 C5.0625 10.125 5.0625 10.125 6.0625 11.125 C6.25 14.0625 6.25 14.0625 6.0625 17.125 C4.0625 19.125 4.0625 19.125 1.0625 19.3125 C-1.9375 19.125 -1.9375 19.125 -3.9375 18.125 C-3.6075 17.135 -3.2775 16.145 -2.9375 15.125 C-1.2875 15.125 0.3625 15.125 2.0625 15.125 C1.27875 14.361875 0.495 13.59875 -0.3125 12.8125 C-2.9375 10.125 -2.9375 10.125 -4.9375 7.125 C-4.24305556 0.18055556 -4.24305556 0.18055556 0 0 Z " fill="#5F5F5F" transform="translate(284.9375,336.875)"/>
<path d="M0 0 C3.3 0 6.6 0 10 0 C10 0.99 10 1.98 10 3 C7.69 3 5.38 3 3 3 C3 4.32 3 5.64 3 7 C4.98 7 6.96 7 9 7 C9 7.99 9 8.98 9 10 C7.02 10 5.04 10 3 10 C3 11.65 3 13.3 3 15 C4.98 15 6.96 15 9 15 C9.33 15.99 9.66 16.98 10 18 C6.7 18 3.4 18 0 18 C-1.60670684 14.78658631 -0.82510855 11.37041032 -0.5625 7.875 C-0.51029297 7.12089844 -0.45808594 6.36679687 -0.40429688 5.58984375 C-0.27454996 3.7262063 -0.13792512 1.86305004 0 0 Z " fill="#515151" transform="translate(72,338)"/>
<path d="M0 0 C1.2065625 0.0309375 1.2065625 0.0309375 2.4375 0.0625 C1.12632339 7.17370489 -0.57970516 14.10949943 -2.5625 21.0625 C-5.0375 20.0725 -5.0375 20.0725 -7.5625 19.0625 C-5.81057605 0.14172137 -5.81057605 0.14172137 0 0 Z " fill="#343434" transform="translate(137.5625,277.9375)"/>
<path d="M0 0 C0.33 0 0.66 0 1 0 C1 4.62 1 9.24 1 14 C1.66 14 2.32 14 3 14 C3.33 13.34 3.66 12.68 4 12 C4 12.66 4 13.32 4 14 C4.84304687 13.97679687 5.68609375 13.95359375 6.5546875 13.9296875 C8.19824219 13.90261719 8.19824219 13.90261719 9.875 13.875 C11.51082031 13.84019531 11.51082031 13.84019531 13.1796875 13.8046875 C16 14 16 14 18 16 C18.26991906 18.68839385 18.08737357 21.29141936 18 24 C8.98185679 25.14516104 0.0719352 25.09471858 -9 25 C-9 24.67 -9 24.34 -9 24 C-0.33003296 22.83288905 8.27369392 22.90255986 17 23 C17 21.02 17 19.04 17 17 C16.02417969 17.10699219 15.04835937 17.21398437 14.04296875 17.32421875 C12.77066406 17.44410156 11.49835938 17.56398437 10.1875 17.6875 C8.92292969 17.81511719 7.65835938 17.94273437 6.35546875 18.07421875 C3 18 3 18 1.0625 17 C-0.59414212 13.88161483 -0.31254417 10.7464053 -0.1875 7.3125 C-0.17396484 6.61060547 -0.16042969 5.90871094 -0.14648438 5.18554688 C-0.11120182 3.45670171 -0.05739583 1.72825235 0 0 Z " fill="#7F7977" transform="translate(222,157)"/>
<path d="M0 0 C0.33 0 0.66 0 1 0 C1.33 1.98 1.66 3.96 2 6 C3.051875 5.896875 4.10375 5.79375 5.1875 5.6875 C9 6 9 6 11.8125 8.0625 C15.17620137 12.57947041 16.05867055 16.21054838 15.875 21.8125 C15 25 15 25 13.125 26.5 C11 27 11 27 8 26 C9.375 24.5 9.375 24.5 11 23 C11.66 23 12.32 23 13 23 C12.71517632 21.58194169 12.42181856 20.16559621 12.125 18.75 C11.88136719 17.56664062 11.88136719 17.56664062 11.6328125 16.359375 C11.00849925 14.03168856 10.15161458 12.10968048 9 10 C7.1128125 9.9690625 7.1128125 9.9690625 5.1875 9.9375 C4.47980469 9.92589844 3.77210938 9.91429687 3.04296875 9.90234375 C0.79694539 9.91736783 0.79694539 9.91736783 -2 11 C-2 9.35 -2 7.7 -2 6 C-1.34 6 -0.68 6 0 6 C0 4.02 0 2.04 0 0 Z " fill="#403A37" transform="translate(255,240)"/>
<path d="M0 0 C0 4.29 0 8.58 0 13 C-2.64 13 -5.28 13 -8 13 C-8 9.04 -8 5.08 -8 1 C-4 0 -4 0 0 0 Z " fill="#FAEDCF" transform="translate(249,142)"/>
<path d="M0 0 C2 2 2 2 2.1953125 5.0390625 C2.17210937 6.22242188 2.14890625 7.40578125 2.125 8.625 C2.10695312 9.81351562 2.08890625 11.00203125 2.0703125 12.2265625 C2.04710937 13.14179688 2.02390625 14.05703125 2 15 C2.66 15 3.32 15 4 15 C4 16.65 4 18.3 4 20 C1.69 20 -0.62 20 -3 20 C-3.2133974 6.76936122 -3.2133974 6.76936122 -2 1 C-1.34 0.67 -0.68 0.34 0 0 Z " fill="#171717" transform="translate(193,302)"/>
<path d="M0 0 C7.59 0 15.18 0 23 0 C23 0.99 23 1.98 23 3 C13.595 3.495 13.595 3.495 4 4 C3.67 4.99 3.34 5.98 3 7 C2.67 6.01 2.34 5.02 2 4 C1.34 4 0.68 4 0 4 C0 2.68 0 1.36 0 0 Z " fill="#020202" transform="translate(287,279)"/>
<path d="M0 0 C0.99 0 1.98 0 3 0 C3.33 4.95 3.66 9.9 4 15 C6.31 15 8.62 15 11 15 C11.33 15.99 11.66 16.98 12 18 C8.04 18 4.08 18 0 18 C0 12.06 0 6.12 0 0 Z " fill="#666666" transform="translate(118,338)"/>
<path d="M0 0 C1.875 0.1875 1.875 0.1875 4 1 C6.27326808 5.16765815 6.24009295 9.18664881 6.125 13.8125 C6.11597656 14.50537109 6.10695313 15.19824219 6.09765625 15.91210938 C6.07426157 17.60822395 6.03839641 19.30415871 6 21 C2.52674819 22.1577506 -0.36067448 22.06866652 -4 22 C-3.67 21.34 -3.34 20.68 -3 20 C-0.67843403 19.59270772 1.6568787 19.25561323 4 19 C3.67 18.34 3.34 17.68 3 17 C2.77141886 14.9625237 2.58975722 12.91959697 2.4375 10.875 C2.35371094 9.77929688 2.26992188 8.68359375 2.18359375 7.5546875 C2.12300781 6.71164063 2.06242187 5.86859375 2 5 C-0.31 4.67 -2.62 4.34 -5 4 C-5 3.67 -5 3.34 -5 3 C-3.02 3 -1.04 3 1 3 C0.67 2.01 0.34 1.02 0 0 Z " fill="#38332D" transform="translate(258,179)"/>
<path d="M0 0 C2.31 0 4.62 0 7 0 C7 0.99 7 1.98 7 3 C6.34 3 5.68 3 5 3 C5 6.96 5 10.92 5 15 C5.66 15 6.32 15 7 15 C7 15.99 7 16.98 7 18 C4.69 18 2.38 18 0 18 C0 17.01 0 16.02 0 15 C0.66 15 1.32 15 2 15 C2 11.04 2 7.08 2 3 C1.01 2.67 0.02 2.34 -1 2 C-0.67 1.34 -0.34 0.68 0 0 Z " fill="#6B6B6B" transform="translate(352,338)"/>
<path d="M0 0 C0.99 0 1.98 0 3 0 C3 4.95 3 9.9 3 15 C5.64 15 8.28 15 11 15 C11 15.99 11 16.98 11 18 C7.37 18 3.74 18 0 18 C0 12.06 0 6.12 0 0 Z " fill="#555555" transform="translate(237,338)"/>
<path d="M0 0 C0 0.33 0 0.66 0 1 C2.31 1.33 4.62 1.66 7 2 C7 2.66 7 3.32 7 4 C-5.87 4 -18.74 4 -32 4 C-28.62427071 0.62427071 -28.62427071 0.62427071 -24.90234375 0.48828125 C-24.10481689 0.45275146 -23.30729004 0.41722168 -22.4855957 0.38061523 C-21.64472412 0.35813721 -20.80385254 0.33565918 -19.9375 0.3125 C-19.08438232 0.27906494 -18.23126465 0.24562988 -17.35229492 0.21118164 C-11.56711281 -0.00096191 -5.78867503 -0.09489631 0 0 Z " fill="#7D736D" transform="translate(234,201)"/>
<path d="M0 0 C0.99 0 1.98 0 3 0 C2.67 1.65 2.34 3.3 2 5 C1.01 5.33 0.02 5.66 -1 6 C-1 6.66 -1 7.32 -1 8 C-8.24378397 11.98651199 -16.95480331 11.13533976 -25 11 C-24.67 10.34 -24.34 9.68 -24 9 C-20.72087517 8.48940963 -17.47006016 8.16256207 -14.16601562 7.87695312 C-9.53747752 7.40256002 -6.04990899 6.4780265 -2 4 C-0.59533047 1.94906855 -0.59533047 1.94906855 0 0 Z " fill="#35312D" transform="translate(303,156)"/>
<path d="M0 0 C2.31 0 4.62 0 7 0 C7.495 4.455 7.495 4.455 8 9 C10.475 9.495 10.475 9.495 13 10 C13 10.33 13 10.66 13 11 C-0.2 11.33 -13.4 11.66 -27 12 C-26.67 11.34 -26.34 10.68 -26 10 C-15.44 9.67 -4.88 9.34 6 9 C6 6.36 6 3.72 6 1 C4.02 1 2.04 1 0 1 C0 0.67 0 0.34 0 0 Z " fill="#1C130B" transform="translate(234,172)"/>
<path d="M0 0 C0.33 1.65 0.66 3.3 1 5 C-0.98 5.99 -0.98 5.99 -3 7 C-1.68 7.66 -0.36 8.32 1 9 C-1.75078884 9.91692961 -3.35948913 10.10886083 -6.1875 10.0625 C-8.0746875 10.0315625 -8.0746875 10.0315625 -10 10 C-9.01 9.34 -8.02 8.68 -7 8 C-7.66 7.67 -8.32 7.34 -9 7 C-8.6875 4.625 -8.6875 4.625 -8 2 C-4.77208445 -0.1519437 -3.71599191 -0.20086443 0 0 Z " fill="#A19487" transform="translate(258,258)"/>
<path d="M0 0 C9 0 9 0 11.125 1.5625 C12.36328987 5.01202179 11.86221231 7.48482672 11 11 C10.01 11.495 10.01 11.495 9 12 C9 11.34 9 10.68 9 10 C8.34 9.67 7.68 9.34 7 9 C7 7.35 7 5.7 7 4 C5.68 3.67 4.36 3.34 3 3 C3 2.34 3 1.68 3 1 C2.34 1 1.68 1 1 1 C1 6.61 1 12.22 1 18 C0.67 18 0.34 18 0 18 C0 12.06 0 6.12 0 0 Z " fill="#767676" transform="translate(336,338)"/>
<path d="M0 0 C2.5048111 1.87860833 2.98700625 2.96101874 4 6 C4.12781786 8.67394964 4.04391871 11.32095857 4 14 C3.67 14 3.34 14 3 14 C2.95875 12.906875 2.9175 11.81375 2.875 10.6875 C2.39434602 6.75003667 2.39434602 6.75003667 -1.0625 5.0625 C-2.031875 4.711875 -3.00125 4.36125 -4 4 C-4.33 6.64 -4.66 9.28 -5 12 C-5.33 12 -5.66 12 -6 12 C-6.33 13.65 -6.66 15.3 -7 17 C-7.33 17 -7.66 17 -8 17 C-8.08097324 14.72975032 -8.13917704 12.45867925 -8.1875 10.1875 C-8.22230469 8.92292969 -8.25710938 7.65835937 -8.29296875 6.35546875 C-8 3 -8 3 -6.64453125 1.07421875 C-4.28408702 -0.46763912 -2.7592847 -0.4138927 0 0 Z " fill="#707070" transform="translate(328,337)"/>
<path d="M0 0 C0.99 0.33 1.98 0.66 3 1 C3 6.61 3 12.22 3 18 C-2 17 -2 17 -3 16 C-3.04063832 14.33382885 -3.042721 12.66611905 -3 11 C-2.01 11.495 -2.01 11.495 -1 12 C-0.67 8.04 -0.34 4.08 0 0 Z " fill="#424242" transform="translate(403,338)"/>
<path d="M0 0 C1.98 0.66 3.96 1.32 6 2 C6.25 4.8125 6.25 4.8125 6 8 C4.125 9.875 4.125 9.875 2 11 C1.34 11 0.68 11 0 11 C-2.3208055 7.7508723 -3.43697042 4.94120709 -4 1 C-3.01 1 -2.02 1 -1 1 C-0.67 1.33 -0.34 1.66 0 2 C0 1.34 0 0.68 0 0 Z " fill="#E7DBC5" transform="translate(247,248)"/>
<path d="M0 0 C0.33 0 0.66 0 1 0 C1 5.61 1 11.22 1 17 C1.66 16.67 2.32 16.34 3 16 C3 14.02 3 12.04 3 10 C3.33 10 3.66 10 4 10 C4 11.65 4 13.3 4 15 C5.32 14.67 6.64 14.34 8 14 C8 13.34 8 12.68 8 12 C8.66 12 9.32 12 10 12 C9.67 10.68 9.34 9.36 9 8 C9.66 8 10.32 8 11 8 C11.33 7.01 11.66 6.02 12 5 C13.01095266 9.34709642 13.29010189 12.07411104 11 16 C7.35899456 18.83189312 5.04441477 18 0 18 C0 12.06 0 6.12 0 0 Z " fill="#969696" transform="translate(220,338)"/>
<path d="M0 0 C0.99 0 1.98 0 3 0 C3 5.94 3 11.88 3 18 C1.68 18 0.36 18 -1 18 C-1.33 15.69 -1.66 13.38 -2 11 C-1.34 11 -0.68 11 0 11 C0 7.37 0 3.74 0 0 Z " fill="#343434" transform="translate(213,338)"/>
<path d="M0 0 C-3.26969348 3.26969348 -7.62274156 3.34803714 -12.0625 4.1875 C-12.97966797 4.37763672 -13.89683594 4.56777344 -14.84179688 4.76367188 C-20.8999348 5.92721218 -25.90628048 5.9792364 -32 5 C-32 4.67 -32 4.34 -32 4 C-21.33462968 1.73894149 -10.95507335 -0.23815377 0 0 Z " fill="#4D4540" transform="translate(289,149)"/>
<path d="M0 0 C-0.99 0.495 -0.99 0.495 -2 1 C-2 1.66 -2 2.32 -2 3 C-19.40506329 6.05543431 -19.40506329 6.05543431 -25 5 C-25.66 4.01 -26.32 3.02 -27 2 C-24.00051609 1.66134859 -21.00055074 1.32894927 -18 1 C-17.16082031 0.90460938 -16.32164062 0.80921875 -15.45703125 0.7109375 C-10.26859055 0.14785091 -5.21873039 -0.09664316 0 0 Z " fill="#4C443F" transform="translate(276,167)"/>
<path d="M0 0 C0.33 0 0.66 0 1 0 C1.33 4.62 1.66 9.24 2 14 C-0.31 14.66 -2.62 15.32 -5 16 C-3.081875 15.938125 -3.081875 15.938125 -1.125 15.875 C1.0546875 15.8046875 1.0546875 15.8046875 3 16 C3.66 16.66 4.32 17.32 5 18 C1.04 18.495 1.04 18.495 -3 19 C-3 19.33 -3 19.66 -3 20 C-4.65 20 -6.3 20 -8 20 C-8.33 18.35 -8.66 16.7 -9 15 C-6.69 14.34 -4.38 13.68 -2 13 C-1.34 8.71 -0.68 4.42 0 0 Z " fill="#9E9383" transform="translate(260,184)"/>
<path d="M0 0 C2.31 0 4.62 0 7 0 C7 2.97 7 5.94 7 9 C4.69 9 2.38 9 0 9 C0 6.03 0 3.06 0 0 Z " fill="#F9EDD3" transform="translate(242,172)"/>
<path d="M0 0 C0.66 0 1.32 0 2 0 C2.19722656 0.79148437 2.39445313 1.58296875 2.59765625 2.3984375 C3.78180702 5.29213004 3.78180702 5.29213004 6.93359375 6.0390625 C8.66802734 6.32910156 8.66802734 6.32910156 10.4375 6.625 C17.57459505 7.85305881 17.57459505 7.85305881 20 11 C12.42709109 11.50114838 7.52198875 10.98565979 1 7 C0 6 0 6 -0.0625 2.9375 C-0.041875 1.968125 -0.02125 0.99875 0 0 Z " fill="#58514C" transform="translate(222,257)"/>
<path d="M0 0 C0.66 0 1.32 0 2 0 C2 2.64 2 5.28 2 8 C5.465 7.505 5.465 7.505 9 7 C8.67 7.99 8.34 8.98 8 10 C7.34 9.67 6.68 9.34 6 9 C6 9.66 6 10.32 6 11 C5.01 11 4.02 11 3 11 C3 13.31 3 15.62 3 18 C2.01 18 1.02 18 0 18 C0 12.06 0 6.12 0 0 Z " fill="#353334" transform="translate(305,338)"/>
<path d="M0 0 C4.95 0 9.9 0 15 0 C15 0.66 15 1.32 15 2 C13.35 2 11.7 2 10 2 C9.67 3.65 9.34 5.3 9 7 C8.01 7.33 7.02 7.66 6 8 C6 6.35 6 4.7 6 3 C4.02 3 2.04 3 0 3 C0 2.01 0 1.02 0 0 Z " fill="#070707" transform="translate(368,280)"/>
<path d="M0 0 C0.66 0.33 1.32 0.66 2 1 C-0.2473568 7.06786337 -6.71246682 10.75537736 -12 14 C-12.66 14 -13.32 14 -14 14 C-13.673444 11.02834041 -13.16110849 10.13425708 -10.8203125 8.18359375 C-9.93085938 7.60738281 -9.04140625 7.03117188 -8.125 6.4375 C-5.12509395 4.47400464 -2.43050567 2.64780253 0 0 Z " fill="#5B544D" transform="translate(206,182)"/>
<path d="M0 0 C2.61749674 1.37762986 4.61033183 2.46863431 6.375 4.875 C7.16398398 7.55754554 6.73980543 9.33670046 6 12 C5.34 12 4.68 12 4 12 C2.63636792 10.02053408 1.30581356 8.0180755 0 6 C-1.62351109 4.20605554 -1.62351109 4.20605554 -3 3 C-2.67 2.34 -2.34 1.68 -2 1 C-1.34 1.33 -0.68 1.66 0 2 C0 1.34 0 0.68 0 0 Z " fill="#B09D88" transform="translate(239,252)"/>
<path d="M0 0 C0.91848119 2.75544358 1.08426974 4.24473058 1 7.0625 C0.70651608 10.78571015 0.70651608 10.78571015 2 13 C3.65 13 5.3 13 7 13 C7 14.32 7 15.64 7 17 C1.51089109 17.36594059 1.51089109 17.36594059 -0.6796875 15.796875 C-2.41484162 13.43542264 -2.36932107 11.96911615 -2.3125 9.0625 C-2.30863281 8.20785156 -2.30476563 7.35320312 -2.30078125 6.47265625 C-1.98780141 3.89971808 -1.29573378 2.22494525 0 0 Z " fill="#313131" transform="translate(380,339)"/>
<path d="M0 0 C2.3125 -0.25 2.3125 -0.25 5 0 C6.8125 2 6.8125 2 8 4 C7.34 5.32 6.68 6.64 6 8 C4.35 8 2.7 8 1 8 C-0.35439668 5.29120665 -0.06501451 2.99066732 0 0 Z " fill="#151515" transform="translate(317,314)"/>
<path d="M0 0 C-6.12083471 5.61076515 -14.20485005 5.28752602 -22 5 C-19.29071931 2.29071931 -16.98253223 2.15457952 -13.25 1.375 C-12.03828125 1.11460937 -10.8265625 0.85421875 -9.578125 0.5859375 C-6.30143211 0.04936115 -3.31081291 -0.11171455 0 0 Z " fill="#4C453E" transform="translate(278,215)"/>
<path d="M0 0 C-0.33 0.99 -0.66 1.98 -1 3 C-1.92232422 3.05607422 -1.92232422 3.05607422 -2.86328125 3.11328125 C-3.67152344 3.17902344 -4.47976562 3.24476563 -5.3125 3.3125 C-6.11300781 3.37050781 -6.91351563 3.42851562 -7.73828125 3.48828125 C-10.39937691 4.09035989 -11.15565927 5.07299974 -13 7 C-13.99 7 -14.98 7 -16 7 C-15.42655063 4.13275314 -15.1385485 3.1385485 -13 1 C-8.23522577 -0.7409752 -4.93972825 -1.20481177 0 0 Z " fill="#4C4741" transform="translate(239,249)"/>
<path d="M0 0 C7.59 0 15.18 0 23 0 C23 2.64 23 5.28 23 8 C22.34 7.67 21.68 7.34 21 7 C21 5.35 21 3.7 21 2 C19.81921875 2.02320313 18.6384375 2.04640625 17.421875 2.0703125 C15.86458967 2.08907497 14.30729748 2.10727466 12.75 2.125 C11.97269531 2.14175781 11.19539062 2.15851563 10.39453125 2.17578125 C9.64042969 2.18222656 8.88632813 2.18867188 8.109375 2.1953125 C7.41811523 2.20578613 6.72685547 2.21625977 6.01464844 2.22705078 C4 2 4 2 0 0 Z " fill="#D4C2A1" transform="translate(237,183)"/>
<path d="M0 0 C0.33 0.99 0.66 1.98 1 3 C4.00847418 4.22520264 4.00847418 4.22520264 7 5 C7 5.66 7 6.32 7 7 C3.04 7 -0.92 7 -5 7 C-3.92643531 2.70574125 -3.4915227 2.25259529 0 0 Z " fill="#535353" transform="translate(367,349)"/>
<path d="M0 0 C2.31 0 4.62 0 7 0 C6.360625 0.165 5.72125 0.33 5.0625 0.5 C2.83880759 1.781786 2.83880759 1.781786 2.51171875 3.9140625 C2.2724022 5.93575155 2.13106972 7.96841939 2 10 C2.66 10.33 3.32 10.66 4 11 C3.34 11 2.68 11 2 11 C2 13.31 2 15.62 2 18 C1.34 18 0.68 18 0 18 C0 12.06 0 6.12 0 0 Z " fill="#101010" transform="translate(149,339)"/>
<path d="M0 0 C0.33 0 0.66 0 1 0 C1 1.65 1 3.3 1 5 C1.66 5 2.32 5 3 5 C3 5.66 3 6.32 3 7 C3.99 7.33 4.98 7.66 6 8 C5.01 8.495 5.01 8.495 4 9 C4.33 9.99 4.66 10.98 5 12 C3.25 12.6875 3.25 12.6875 1 13 C-1.25 11.5625 -1.25 11.5625 -3 10 C-2.67 8.68 -2.34 7.36 -2 6 C-0.515 6.99 -0.515 6.99 1 8 C1.33 7.34 1.66 6.68 2 6 C1.34 6 0.68 6 0 6 C0 4.02 0 2.04 0 0 Z " fill="#545454" transform="translate(152,309)"/>
<path d="M0 0 C3.5 -0.375 3.5 -0.375 7 0 C7.66 0.99 8.32 1.98 9 3 C6 4 6 4 3 4 C0.81222534 5.9375006 0.81222534 5.9375006 -1 8 C-1.625 5.6875 -1.625 5.6875 -2 3 C-1.34 2.01 -0.68 1.02 0 0 Z " fill="#6A6A6A" transform="translate(411,337)"/>
<path d="M0 0 C1.98 0 3.96 0 6 0 C6.33 1.32 6.66 2.64 7 4 C4.23547967 5.38226016 1.9538637 5.09525387 -1.125 5.0625 C-2.22070312 5.05347656 -3.31640625 5.04445313 -4.4453125 5.03515625 C-5.70988281 5.01775391 -5.70988281 5.01775391 -7 5 C-7 7.31 -7 9.62 -7 12 C-7.33 12 -7.66 12 -8 12 C-8 9.36 -8 6.72 -8 4 C-3.545 3.505 -3.545 3.505 1 3 C0.67 2.01 0.34 1.02 0 0 Z " fill="#6E6E6E" transform="translate(300,297)"/>
<path d="M0 0 C0.66 0 1.32 0 2 0 C2 2.64 2 5.28 2 8 C5.96 8 9.92 8 14 8 C10.36804504 10.42130331 8.61650652 10.21022785 4.3125 10.125 C3.13300781 10.10695312 1.95351562 10.08890625 0.73828125 10.0703125 C-0.16535156 10.04710937 -1.06898438 10.02390625 -2 10 C-1.34 9.67 -0.68 9.34 0 9 C0 6.03 0 3.06 0 0 Z " fill="#120C07" transform="translate(249,146)"/>
<path d="M0 0 C0.33 0.66 0.66 1.32 1 2 C1.99 2 2.98 2 4 2 C4 1.34 4 0.68 4 0 C4.99 0.33 5.98 0.66 7 1 C7 3 7 5 7 7 C5.35 7 3.7 7 2 7 C2 5.68 2 4.36 2 3 C1.34 3 0.68 3 0 3 C0 4.65 0 6.3 0 8 C-1.125 6.25 -1.125 6.25 -2 4 C-1.125 1.75 -1.125 1.75 0 0 Z " fill="#B4A698" transform="translate(222,254)"/>
<path d="M0 0 C0.33 0 0.66 0 1 0 C1.125 2.875 1.125 2.875 1 6 C-1 8 -1 8 -4 8.1875 C-7 8 -7 8 -9 7 C-8.67 6.01 -8.34 5.02 -8 4 C-6.35 4 -4.7 4 -3 4 C-3 3.34 -3 2.68 -3 2 C-2.34 2 -1.68 2 -1 2 C-0.67 1.34 -0.34 0.68 0 0 Z " fill="#676767" transform="translate(290,348)"/>
<path d="M0 0 C0.33 1.32 0.66 2.64 1 4 C-0.65 4 -2.3 4 -4 4 C-4.33 4.66 -4.66 5.32 -5 6 C-5.66 6 -6.32 6 -7 6 C-7.33 6.66 -7.66 7.32 -8 8 C-8 5.69 -8 3.38 -8 1 C-5.29120665 -0.35439668 -2.99066732 -0.06501451 0 0 Z " fill="#393939" transform="translate(274,337)"/>
<path d="M0 0 C-4.51654898 3.01103265 -8.47362381 3.12682381 -13.8125 3.0625 C-15.27623047 3.04896484 -15.27623047 3.04896484 -16.76953125 3.03515625 C-17.87361328 3.01775391 -17.87361328 3.01775391 -19 3 C-18.67 2.34 -18.34 1.68 -18 1 C-12.17592235 -0.57407504 -5.98360949 -0.08713994 0 0 Z " fill="#241C15" transform="translate(297,164)"/>
<path d="M0 0 C1.32 0 2.64 0 4 0 C4 4.29 4 8.58 4 13 C1.36 13 -1.28 13 -4 13 C-4 9.7 -4 6.4 -4 3 C-3.67 3 -3.34 3 -3 3 C-3 5.31 -3 7.62 -3 10 C-1.02 10.66 0.96 11.32 3 12 C3 8.37 3 4.74 3 1 C2.01 0.67 1.02 0.34 0 0 Z " fill="#CFC6B2" transform="translate(245,142)"/>
<path d="M0 0 C0.33 0 0.66 0 1 0 C1 8.25 1 16.5 1 25 C0.34 24.01 -0.32 23.02 -1 22 C-1.99 21.67 -2.98 21.34 -4 21 C-3.01 19.515 -3.01 19.515 -2 18 C-1.34 18 -0.68 18 0 18 C0 12.06 0 6.12 0 0 Z " fill="#C2B9A6" transform="translate(252,222)"/>
<path d="M0 0 C0.33 0.66 0.66 1.32 1 2 C3.31 2 5.62 2 8 2 C8 2.33 8 2.66 8 3 C6.02 3.33 4.04 3.66 2 4 C4.97 4.495 4.97 4.495 8 5 C8 5.33 8 5.66 8 6 C4.37 6.33 0.74 6.66 -3 7 C-3.33 6.01 -3.66 5.02 -4 4 C-2.68 2.68 -1.36 1.36 0 0 Z " fill="#9E927D" transform="translate(277,162)"/>
<path d="M0 0 C0.66 0 1.32 0 2 0 C2.02687279 1.81242052 2.04633715 3.62495233 2.0625 5.4375 C2.07410156 6.44683594 2.08570313 7.45617187 2.09765625 8.49609375 C2 11 2 11 1 12 C-0.99958364 12.04080783 -3.00045254 12.04254356 -5 12 C-4.67 11.01 -4.34 10.02 -4 9 C-3.01 9 -2.02 9 -1 9 C-0.67 6.03 -0.34 3.06 0 0 Z " fill="#242424" transform="translate(141,343)"/>
<path d="M0 0 C0.33 0 0.66 0 1 0 C1.25 6.625 1.25 6.625 -1 10 C-4.125 10.1875 -4.125 10.1875 -7 10 C-7 11.65 -7 13.3 -7 15 C-7.33 15 -7.66 15 -8 15 C-8 13.02 -8 11.04 -8 9 C-6.02 9 -4.04 9 -2 9 C-2 8.34 -2 7.68 -2 7 C-2.66 6.67 -3.32 6.34 -4 6 C-3.34 4.68 -2.68 3.36 -2 2 C-1.34 2 -0.68 2 0 2 C0 1.34 0 0.68 0 0 Z " fill="#818181" transform="translate(113,341)"/>
<path d="M0 0 C0.66 1.32 1.32 2.64 2 4 C1.01 4.66 0.02 5.32 -1 6 C-1.72965366 8.56282742 -1.72965366 8.56282742 -2 11 C-2.19335938 10.36578125 -2.38671875 9.7315625 -2.5859375 9.078125 C-3.8911392 6.67611298 -3.8911392 6.67611298 -7.0390625 6.171875 C-8.22242188 6.03265625 -9.40578125 5.8934375 -10.625 5.75 C-11.81351562 5.60046875 -13.00203125 5.4509375 -14.2265625 5.296875 C-15.14179688 5.19890625 -16.05703125 5.1009375 -17 5 C-17 4.67 -17 4.34 -17 4 C-11.84828377 3.90961901 -7.08086796 4.15318867 -2 5 C-1.34 3.35 -0.68 1.7 0 0 Z " fill="#737373" transform="translate(357,305)"/>
<path d="M0 0 C-3.25174333 2.16782888 -5.24467184 2.54049654 -9.0625 3.125 C-10.12597656 3.29257813 -11.18945312 3.46015625 -12.28515625 3.6328125 C-15 4 -15 4 -17 4 C-17 3.34 -17 2.68 -17 2 C-11.16200408 0.30167391 -6.06892629 -0.25287193 0 0 Z " fill="#2B231D" transform="translate(274,201)"/>
<path d="M0 0 C2 2 2 2 3 5 C3.66 5.33 4.32 5.66 5 6 C5 6.66 5 7.32 5 8 C6.32 8.33 7.64 8.66 9 9 C7.265625 9.71484375 7.265625 9.71484375 5 10 C2.859375 8.56640625 2.859375 8.56640625 0.75 6.5625 C-0.30960938 5.57443359 -0.30960938 5.57443359 -1.390625 4.56640625 C-1.92171875 4.04949219 -2.4528125 3.53257812 -3 3 C-2.01 2.01 -1.02 1.02 0 0 Z " fill="#C0B093" transform="translate(198,192)"/>
<path d="M0 0 C-0.33 0.99 -0.66 1.98 -1 3 C-1.66 3 -2.32 3 -3 3 C-3.33 4.65 -3.66 6.3 -4 8 C-4.33 6.68 -4.66 5.36 -5 4 C-5.66 7.3 -6.32 10.6 -7 14 C-7.33 14 -7.66 14 -8 14 C-8.05447047 12.58376784 -8.09300508 11.16691809 -8.125 9.75 C-8.14820313 8.96109375 -8.17140625 8.1721875 -8.1953125 7.359375 C-7.97962391 4.75385683 -7.3921178 3.20013023 -6 1 C-4 0 -4 0 0 0 Z " fill="#8A8A8A" transform="translate(385,337)"/>
<path d="M0 0 C4.4571874 0.26218749 6.51522698 0.57711289 9.9375 3.5625 C10.618125 4.366875 11.29875 5.17125 12 6 C11.01 6.33 10.02 6.66 9 7 C6.73828125 5.8203125 6.73828125 5.8203125 4.3125 4.125 C3.50425781 3.57070312 2.69601562 3.01640625 1.86328125 2.4453125 C1.24839844 1.96835938 0.63351562 1.49140625 0 1 C0 0.67 0 0.34 0 0 Z " fill="#48413A" transform="translate(290,149)"/>
<path d="M0 0 C0.33 0.66 0.66 1.32 1 2 C2.32 1.67 3.64 1.34 5 1 C5.93423645 4.01031744 6.04449911 4.86650268 5 8 C4.34 8 3.68 8 3 8 C2.67 7.01 2.34 6.02 2 5 C1.67 7.31 1.34 9.62 1 12 C0.67 12 0.34 12 0 12 C0 8.04 0 4.08 0 0 Z " fill="#6C6C6C" transform="translate(206,344)"/>
<path d="M0 0 C0.33 0.66 0.66 1.32 1 2 C0.34 2 -0.32 2 -1 2 C-1 2.66 -1 3.32 -1 4 C-4.3 3.34 -7.6 2.68 -11 2 C-7.4479604 -1.5520396 -4.63749779 -1.10896686 0 0 Z " fill="#38322D" transform="translate(264,264)"/>
<path d="M0 0 C4.42857143 5.14285714 4.42857143 5.14285714 5 9 C4.01 9 3.02 9 2 9 C2 8.34 2 7.68 2 7 C1.34 7 0.68 7 0 7 C-1.625 4.5 -1.625 4.5 -3 2 C-2.34 2 -1.68 2 -1 2 C-0.67 1.34 -0.34 0.68 0 0 Z " fill="#6D6D6D" transform="translate(94,347)"/>
<path d="M0 0 C1.98 0.66 3.96 1.32 6 2 C5.625 4.9375 5.625 4.9375 5 8 C4.01 8.495 4.01 8.495 3 9 C2.34 8.34 1.68 7.68 1 7 C1.375 4.375 1.375 4.375 2 2 C1.34 2 0.68 2 0 2 C0 1.34 0 0.68 0 0 Z " fill="#C9B695" transform="translate(282,203)"/>
<path d="M0 0 C0 0.33 0 0.66 0 1 C-1.65 1.33 -3.3 1.66 -5 2 C-3.35 2.33 -1.7 2.66 0 3 C0 3.33 0 3.66 0 4 C-4.62 4.33 -9.24 4.66 -14 5 C-9.27879689 0.27879689 -6.69583283 -0.25753203 0 0 Z " fill="#9F9486" transform="translate(282,199)"/>
<path d="M0 0 C4.31392226 0.4793247 6.16569547 1.7457985 9 5 C7.02 5.33 5.04 5.66 3 6 C3 5.34 3 4.68 3 4 C2.01 3.67 1.02 3.34 0 3 C0 2.01 0 1.02 0 0 Z " fill="#4F4F4F" transform="translate(267,343)"/>
<path d="M0 0 C2.49349318 1.24674659 3.46640071 2.69960106 5 5 C5 5.66 5 6.32 5 7 C3.35 6.67 1.7 6.34 0 6 C0 5.34 0 4.68 0 4 C-0.66 4 -1.32 4 -2 4 C-2.33 3.01 -2.66 2.02 -3 1 C-2.01 0.67 -1.02 0.34 0 0 Z " fill="#727272" transform="translate(343,350)"/>
<path d="M0 0 C1.48828125 1.08203125 1.48828125 1.08203125 3 3 C3.29296875 6.13671875 3.29296875 6.13671875 3.1875 9.6875 C3.14689453 11.45673828 3.14689453 11.45673828 3.10546875 13.26171875 C3.07066406 14.16535156 3.03585938 15.06898438 3 16 C2.67 16 2.34 16 2 16 C2 12.37 2 8.74 2 5 C1.01 5 0.02 5 -1 5 C-1 4.34 -1 3.68 -1 3 C-1.99 2.67 -2.98 2.34 -4 2 C-2.68 2 -1.36 2 0 2 C0 1.34 0 0.68 0 0 Z " fill="#676767" transform="translate(141,338)"/>
<path d="M0 0 C1.21236328 0.04060547 1.21236328 0.04060547 2.44921875 0.08203125 C3.06410156 0.11683594 3.67898437 0.15164063 4.3125 0.1875 C4.3125 0.8475 4.3125 1.5075 4.3125 2.1875 C1.78774538 3.44987731 0.00049534 3.28606404 -2.8125 3.25 C-3.72257813 3.24097656 -4.63265625 3.23195313 -5.5703125 3.22265625 C-6.26898438 3.21105469 -6.96765625 3.19945312 -7.6875 3.1875 C-5.26849268 0.20484049 -3.789448 -0.16475861 0 0 Z " fill="#38312E" transform="translate(242.6875,263.8125)"/>
<path d="M0 0 C1.258125 -0.020625 2.51625 -0.04125 3.8125 -0.0625 C4.52019531 -0.07410156 5.22789062 -0.08570313 5.95703125 -0.09765625 C8 0 8 0 11 1 C11 1.99 11 2.98 11 4 C9.35232753 3.71890887 7.70686855 3.42481474 6.0625 3.125 C4.68771484 2.88136719 4.68771484 2.88136719 3.28515625 2.6328125 C2.53105469 2.42398438 1.77695312 2.21515625 1 2 C0.67 1.34 0.34 0.68 0 0 Z " fill="#362D28" transform="translate(276,200)"/>
<path d="M0 0 C1.65 1.65 3.3 3.3 5 5 C4.34 6.32 3.68 7.64 3 9 C0.9375 6.75 0.9375 6.75 -1 4 C-0.75 1.6875 -0.75 1.6875 0 0 Z " fill="#888888" transform="translate(86,337)"/>
<path d="M0 0 C7.75 -0.125 7.75 -0.125 10 1 C10 1.66 10 2.32 10 3 C9.34 3 8.68 3 8 3 C8 5.31 8 7.62 8 10 C7.67 10 7.34 10 7 10 C7 7.69 7 5.38 7 3 C6.401875 2.87625 5.80375 2.7525 5.1875 2.625 C3 2 3 2 0 0 Z " fill="#818181" transform="translate(149,338)"/>
<path d="M0 0 C1.32 0 2.64 0 4 0 C4 2.97 4 5.94 4 9 C1.18167487 7.59083743 0.97406539 5.92219617 0 3 C0 2.01 0 1.02 0 0 Z " fill="#191919" transform="translate(113,278)"/>
<path d="M0 0 C1.60332791 -0.08121924 3.20784026 -0.13929134 4.8125 -0.1875 C6.15248047 -0.23970703 6.15248047 -0.23970703 7.51953125 -0.29296875 C10 0 10 0 13 3 C9.37 3 5.74 3 2 3 C2 2.34 2 1.68 2 1 C1.34 0.67 0.68 0.34 0 0 Z " fill="#797573" transform="translate(229,265)"/>
<path d="M0 0 C0.99 0 1.98 0 3 0 C2.75 2.875 2.75 2.875 2 6 C0.125 7.4375 0.125 7.4375 -2 8 C-2.99 7.67 -3.98 7.34 -5 7 C-3.625 5.5 -3.625 5.5 -2 4 C-1.34 4 -0.68 4 0 4 C0 2.68 0 1.36 0 0 Z " fill="#5E5652" transform="translate(268,259)"/>
<path d="M0 0 C1.65 0 3.3 0 5 0 C5 0.66 5 1.32 5 2 C5.66 2.66 6.32 3.32 7 4 C4.6875 4.625 4.6875 4.625 2 5 C1.01 4.34 0.02 3.68 -1 3 C-0.67 2.01 -0.34 1.02 0 0 Z " fill="#D5BD93" transform="translate(293,158)"/>
<path d="M0 0 C3.96 0 7.92 0 12 0 C11.67 1.65 11.34 3.3 11 5 C10.34 3.68 9.68 2.36 9 1 C4.35413108 1.48484276 4.35413108 1.48484276 0 3 C0 2.01 0 1.02 0 0 Z " fill="#636363" transform="translate(362,338)"/>
<path d="M0 0 C0.99 0.33 1.98 0.66 3 1 C3.33 1.99 3.66 2.98 4 4 C4.66 4.33 5.32 4.66 6 5 C6 5.66 6 6.32 6 7 C1.125 6.125 1.125 6.125 0 5 C-0.04063832 3.33382885 -0.042721 1.66611905 0 0 Z " fill="#757575" transform="translate(155,350)"/>
<path d="M0 0 C2.3125 -0.25 2.3125 -0.25 5 0 C6.875 1.8125 6.875 1.8125 8 4 C7.67 4.99 7.34 5.98 7 7 C6.67 5.68 6.34 4.36 6 3 C5.01 3 4.02 3 3 3 C3 2.34 3 1.68 3 1 C2.34 1 1.68 1 1 1 C1 2.65 1 4.3 1 6 C0.67 6 0.34 6 0 6 C0 4.02 0 2.04 0 0 Z " fill="#747474" transform="translate(317,314)"/>
<path d="M0 0 C-0.33 0.99 -0.66 1.98 -1 3 C-3.64 3 -6.28 3 -9 3 C-9 2.01 -9 1.02 -9 0 C-5.52176885 -1.15941038 -3.54104422 -0.70820884 0 0 Z " fill="#6D6462" transform="translate(239,249)"/>
<path d="M0 0 C1.32 0.33 2.64 0.66 4 1 C4.33 2.65 4.66 4.3 5 6 C1.7 5.34 -1.6 4.68 -5 4 C-5 3.67 -5 3.34 -5 3 C-3.02 3 -1.04 3 1 3 C0.67 2.01 0.34 1.02 0 0 Z " fill="#6B605A" transform="translate(258,179)"/>
<path d="M0 0 C0.7425 0.515625 1.485 1.03125 2.25 1.5625 C4.83215454 3.24942772 4.83215454 3.24942772 7.3125 2.6875 C7.869375 2.460625 8.42625 2.23375 9 2 C9.33 2.66 9.66 3.32 10 4 C9.01 5.485 9.01 5.485 8 7 C8 6.34 8 5.68 8 5 C6.02 5 4.04 5 2 5 C1.34 3.35 0.68 1.7 0 0 Z " fill="#A2967E" transform="translate(294,152)"/>
<path d="M0 0 C0.99 0.66 1.98 1.32 3 2 C3 2.66 3 3.32 3 4 C2.34 4 1.68 4 1 4 C0.34 5.32 -0.32 6.64 -1 8 C-1.66 8 -2.32 8 -3 8 C-2.45276317 4.62537285 -1.9451 2.91765 0 0 Z " fill="#7C7C7C" transform="translate(88,348)"/>
<path d="M0 0 C1.5625 1.6875 1.5625 1.6875 3 4 C2.6875 6.75 2.6875 6.75 2 9 C1.34 9 0.68 9 0 9 C-1.125 2.25 -1.125 2.25 0 0 Z " fill="#A59481" transform="translate(243,255)"/>
<path d="M0 0 C2.88575819 0.39803561 3.82189513 0.79009069 5.75 3.0625 C6.1625 3.701875 6.575 4.34125 7 5 C5.68 5.33 4.36 5.66 3 6 C3 5.34 3 4.68 3 4 C2.01 3.67 1.02 3.34 0 3 C0 2.01 0 1.02 0 0 Z " fill="#AC987F" transform="translate(232,259)"/>
<path d="M0 0 C1.98 0 3.96 0 6 0 C6 0.66 6 1.32 6 2 C4.02 2.33 2.04 2.66 0 3 C-0.33 3.99 -0.66 4.98 -1 6 C-0.67 4.02 -0.34 2.04 0 0 Z " fill="#1F1F1F" transform="translate(339,348)"/>
<path d="M0 0 C0.99 0 1.98 0 3 0 C3 1.98 3 3.96 3 6 C2.01 6.33 1.02 6.66 0 7 C0 4.69 0 2.38 0 0 Z " fill="#313131" transform="translate(157,341)"/>
<path d="M0 0 C2.04119788 1.61594832 4.04072937 3.2856382 6 5 C6 5.66 6 6.32 6 7 C3.5625 6.3125 3.5625 6.3125 1 5 C0.1875 2.375 0.1875 2.375 0 0 Z " fill="#3D3D3D" transform="translate(149,315)"/>
<path d="M0 0 C0.99 0.33 1.98 0.66 3 1 C2.67 2.32 2.34 3.64 2 5 C2.99 5.33 3.98 5.66 5 6 C5 6.33 5 6.66 5 7 C3.35 7 1.7 7 0 7 C0 4.69 0 2.38 0 0 Z " fill="#1F1712" transform="translate(247,260)"/>
<path d="M0 0 C0.99 0.33 1.98 0.66 3 1 C2.34 2.98 1.68 4.96 1 7 C0.34 7 -0.32 7 -1 7 C-1.04254356 5.00045254 -1.04080783 2.99958364 -1 1 C-0.67 0.67 -0.34 0.34 0 0 Z " fill="#BCA58B" transform="translate(262,257)"/>
<path d="M0 0 C-2.71182212 2.60334924 -3.89133813 2.99456691 -7.75 3.1875 C-8.8225 3.125625 -9.895 3.06375 -11 3 C-7.63114177 -0.36885823 -4.54278442 -0.10095076 0 0 Z " fill="#2D2623" transform="translate(278,215)"/>
<path d="M0 0 C3.375 0.3125 3.375 0.3125 7 1 C7.66 1.99 8.32 2.98 9 4 C2.25 4.125 2.25 4.125 0 3 C0 2.01 0 1.02 0 0 Z " fill="#878787" transform="translate(410,352)"/>
<path d="M0 0 C2.475 0.495 2.475 0.495 5 1 C4.67 2.32 4.34 3.64 4 5 C2.68 4.34 1.36 3.68 0 3 C0 2.01 0 1.02 0 0 Z " fill="#434343" transform="translate(285,346)"/>
<path d="M0 0 C0.66 0.66 1.32 1.32 2 2 C3.32 2 4.64 2 6 2 C5.67 3.65 5.34 5.3 5 7 C2.525 6.01 2.525 6.01 0 5 C0 3.35 0 1.7 0 0 Z " fill="#525252" transform="translate(130,292)"/>
<path d="M0 0 C0.99 0 1.98 0 3 0 C2 2 1 4 0 6 C-0.99 5.67 -1.98 5.34 -3 5 C-1.125 1.125 -1.125 1.125 0 0 Z " fill="#CDB995" transform="translate(207,185)"/>
<path d="M0 0 C2.31 0 4.62 0 7 0 C7 0.66 7 1.32 7 2 C6.34 2.66 5.68 3.32 5 4 C4.01 4 3.02 4 2 4 C2 3.34 2 2.68 2 2 C1.34 2 0.68 2 0 2 C0 1.34 0 0.68 0 0 Z " fill="#D6CFB2" transform="translate(242,172)"/>
<path d="M0 0 C3.375 0.3125 3.375 0.3125 7 1 C7.66 1.99 8.32 2.98 9 4 C6.69 4 4.38 4 2 4 C1.34 2.68 0.68 1.36 0 0 Z " fill="#8A8A8A" transform="translate(266,352)"/>
<path d="M0 0 C0.66 0 1.32 0 2 0 C2 1.32 2 2.64 2 4 C2.66 4 3.32 4 4 4 C4 4.99 4 5.98 4 7 C3.01 7 2.02 7 1 7 C0.67 4.69 0.34 2.38 0 0 Z " fill="#393939" transform="translate(211,349)"/>
<path d="M0 0 C1.98 0.66 3.96 1.32 6 2 C6 3.98 6 5.96 6 8 C5.34 7.01 4.68 6.02 4 5 C3.01 4.67 2.02 4.34 1 4 C0.3125 1.9375 0.3125 1.9375 0 0 Z " fill="#DFD3B9" transform="translate(247,248)"/>
<path d="M0 0 C1.32 0.33 2.64 0.66 4 1 C4.125 3.875 4.125 3.875 4 7 C3.34 7.66 2.68 8.32 2 9 C1.22678118 6.01758453 0.58803797 3.02419525 0 0 Z " fill="#62605C" transform="translate(287,202)"/>
<path d="M0 0 C1.98 0 3.96 0 6 0 C6.33 1.32 6.66 2.64 7 4 C5.02 4 3.04 4 1 4 C0.67 2.68 0.34 1.36 0 0 Z " fill="#888888" transform="translate(268,337)"/>
<path d="M0 0 C0.66 0 1.32 0 2 0 C2 0.99 2 1.98 2 3 C2.66 3 3.32 3 4 3 C4 3.66 4 4.32 4 5 C2.35 5.33 0.7 5.66 -1 6 C-0.67 4.02 -0.34 2.04 0 0 Z " fill="#AE9883" transform="translate(264,258)"/>
<path d="M0 0 C-0.33 1.65 -0.66 3.3 -1 5 C-2.32 4.34 -3.64 3.68 -5 3 C-5 2.34 -5 1.68 -5 1 C-3 0 -3 0 0 0 Z " fill="#B6A287" transform="translate(256,258)"/>
<path d="M0 0 C0.33 1.32 0.66 2.64 1 4 C2.98 4 4.96 4 7 4 C7 4.33 7 4.66 7 5 C4.36 5.33 1.72 5.66 -1 6 C-1.042721 4.33388095 -1.04063832 2.66617115 -1 1 C-0.67 0.67 -0.34 0.34 0 0 Z " fill="#423D3A" transform="translate(251,176)"/>
<path d="M0 0 C-1.75 1.5625 -1.75 1.5625 -4 3 C-6.25 2.6875 -6.25 2.6875 -8 2 C-6.14210462 -1.71579076 -3.44525918 -1.06921837 0 0 Z " fill="#665D53" transform="translate(302,163)"/>
<path d="M0 0 C0.99 0 1.98 0 3 0 C3 1.32 3 2.64 3 4 C2.01 4 1.02 4 0 4 C0 2.68 0 1.36 0 0 Z " fill="#6A6A6A" transform="translate(424,352)"/>
</svg>
