<svg id="logo-25" width="400" height="46" viewBox="0 0 400 46" fill="none" xmlns="http://www.w3.org/2000/svg">
  <text x="0" y="30" font-size="20" font-family="Arial" fill="#4F9E91">VOYAGE</text>
  <path fill-rule="evenodd" clip-rule="evenodd" d="M72.6756 7.40747C74.0634 6.01977 76.3134 6.01977 77.7012 7.40747C79.089 8.79527 79.089 11.0453 77.7012 12.4331L69.2403 20.894C66.8111 17.6384 67.075 13.0082 70.032 10.0512L72.6756 7.40747Z" class="ccompli1" fill="#4F9E91"></path>
  <path fill-rule="evenodd" clip-rule="evenodd" d="M84.771 26.4967C86.159 27.8844 86.159 30.1345 84.771 31.5222C83.384 32.91 81.1336 32.91 79.7458 31.5222L71.2849 23.0614C74.5405 20.6322 79.1707 20.896 82.1277 23.853L84.771 26.4967Z" class="ccustom" fill="#EBE1C5"></path>
  <path fill-rule="evenodd" clip-rule="evenodd" d="M65.6821 38.5924C64.2944 39.9802 62.0443 39.9802 60.6566 38.5924C59.2688 37.2046 59.2688 34.9546 60.6566 33.5668L69.1174 25.106C71.5466 28.3616 71.2828 32.9918 68.3258 35.9487L65.6821 38.5924Z" class="ccompli2" fill="#EBCC6E"></path>
  <path fill-rule="evenodd" clip-rule="evenodd" d="M53.5865 19.5032C52.1987 18.1154 52.1987 15.8654 53.5865 14.4776C54.9743 13.0898 57.2243 13.0898 58.6121 14.4776L67.073 22.9385C63.8174 25.3677 59.1871 25.1038 56.2302 22.1469L53.5865 19.5032Z" class="ccustom" fill="#ED834E"></path>
  <path fill-rule="evenodd" clip-rule="evenodd" d="M70.7849 37.5562C72.8312 35.281 73.7823 32.3697 73.638 29.5033L77.7014 33.5667C77.7115 33.5768 77.7217 33.5869 77.7319 33.597V36.498C77.7319 38.4606 76.1409 40.0516 74.1783 40.0516C72.5842 40.0516 71.2353 39.002 70.7849 37.5562Z" class="ccustom" fill="#ED834E"></path>
  <path fill-rule="evenodd" clip-rule="evenodd" d="M54.6226 24.6058C56.8977 26.6522 59.809 27.6033 62.6754 27.459L58.6121 31.5224C58.6019 31.5325 58.5918 31.5427 58.5818 31.5528H55.6808C53.7182 31.5529 52.1272 29.9618 52.1272 27.9992C52.1272 26.4052 53.1768 25.0562 54.6226 24.6058Z" class="ccompli1" fill="#4F9E91"></path>
  <path fill-rule="evenodd" clip-rule="evenodd" d="M83.735 21.3942C81.4601 19.3478 78.5488 18.3967 75.6824 18.5409L79.7457 14.4776C79.7559 14.4675 79.7659 14.4573 79.776 14.4471H82.6771C84.64 14.4471 86.231 16.0382 86.231 18.0008C86.231 19.5949 85.181 20.9438 83.735 21.3942Z" class="ccompli2" fill="#EBCC6E"></path>
  <path fill-rule="evenodd" clip-rule="evenodd" d="M67.573 8.44368C65.5266 10.7188 64.5756 13.6301 64.7198 16.4966L60.6565 12.4332C60.6463 12.4231 60.6362 12.413 60.626 12.4029V9.50188C60.626 7.53928 62.217 5.94818 64.1796 5.94818C65.7737 5.94818 67.1226 6.99788 67.573 8.44368Z" class="ccustom" fill="#EBE1C5"></path>
  <text x="130" y="30" font-size="20" font-family="Arial" fill="#4F9E91">AI</text>
</svg>
