<svg id="logo-33" width="160" height="46" viewBox="0 0 160 46" fill="none" xmlns="http://www.w3.org/2000/svg">
  <path fill-rule="evenodd" clip-rule="evenodd" d="M26.6046 3.72414C25.1108 2.23101 22.6895 2.2315 21.1964 3.72525L8.73506 16.1917L8.72444 16.1886L8.68506 16.1928C8.70128 16.2006 8.7172 16.2083 8.7328 16.2161C6.54682 16.4451 5.61934 17.102 5.60884 17.9456C5.61254 18.2594 5.74129 18.5983 5.97778 18.9501L5.96641 18.9615C7.95369 21.9588 17.7986 25.9127 24.7636 23.2338C19.5436 25.8438 7.25026 26.3611 3.63951 21.2935C2.85537 22.1418 2.52729 23.2566 2.65084 24.3279C3.6047 29.5853 14.2689 31.0196 24.9332 23.4023L27.2409 25.71C24.3693 28.6602 20.1276 45.7967 26.4303 43.1803C26.5798 43.0788 26.7067 42.988 26.8793 42.8574L27.1602 42.5922C27.144 42.5962 27.1279 42.6 27.1119 42.6038L43.9919 26.6681C45.5592 25.1884 45.5947 22.7065 44.0702 21.1826L26.6046 3.72414ZM24.7664 8.91743L25.3433 6.60974L25.9202 8.91743L27.651 9.49436L25.9202 10.0713L25.3433 12.379L24.7664 10.0713L23.0356 9.49436L24.7664 8.91743ZM17.6255 16.4508L18.0101 14.9123L18.3947 16.4508L19.5486 16.8354L18.3947 17.22L18.0101 18.7585L17.6255 17.22L16.4717 16.8354L17.6255 16.4508ZM31.0211 29.4277L30.6365 30.9661L29.4827 31.3508L30.6365 31.7354L31.0211 33.2738L31.4057 31.7354L32.5596 31.3508L31.4057 30.9661L31.0211 29.4277Z" class="ccustom" fill="#4845D2"></path>
<text x="55" y="40" font-family="Arial, sans-serif" font-size="16" fill="#4845D2" font-weight="bold">VOYAGE.AI</text>
</svg>
